<svg xmlns="http://www.w3.org/2000/svg" width="389" height="335" viewBox="0 0 389 335" version="1.1"><path d="M 152.500 86.819 C 149.200 87.807, 144.700 89.781, 142.500 91.207 C 136.725 94.950, 128.875 103.432, 123.688 111.532 C 119.379 118.261, 118.719 118.814, 108.343 124.397 C 102.379 127.606, 93.225 133.039, 88 136.470 C 70.524 147.945, 65.368 154.039, 64.289 164.491 C 62.766 179.250, 72.723 189.278, 108.037 208.553 C 119.132 214.609, 122.138 216.742, 124.703 220.381 C 130.533 228.652, 145.051 238.120, 154 239.487 C 156.527 239.873, 155.816 239.393, 151.441 237.761 C 140.168 233.554, 129.505 225.789, 125.006 218.509 C 123.518 216.102, 119.319 213.258, 108.778 207.519 C 82.166 193.031, 71.515 184.891, 67.226 175.761 C 59.318 158.925, 71.048 145.454, 112.989 123.205 C 119.779 119.603, 120.853 118.600, 124.489 112.465 C 129.755 103.581, 139.109 94.162, 146 90.805 C 152.684 87.549, 161.525 85.560, 166.109 86.282 C 175.801 87.809, 181.016 89.478, 185.734 92.564 L 187.968 94.025 184.419 98.674 C 181.499 102.500, 180.916 104.047, 181.129 107.411 C 181.523 113.657, 183.328 115.627, 190.829 117.999 C 194.498 119.159, 198.281 120.534, 199.236 121.054 C 200.191 121.574, 201.475 122, 202.089 122 C 204.929 122, 226.025 132.977, 229 136.003 C 229.275 136.283, 231.149 137.740, 233.163 139.241 C 235.178 140.742, 237.536 142.679, 238.403 143.546 C 242.662 147.805, 251.541 145.721, 254.636 139.738 C 257.425 134.344, 268.107 124.038, 274.771 120.312 C 283.570 115.390, 290.733 113.661, 302.500 113.617 L 312.500 113.579 306.076 112.626 C 297.899 111.413, 285.719 113.596, 276.776 117.878 C 269.017 121.592, 260.187 129.362, 254.936 137.095 C 248.367 146.768, 244.865 147.171, 235.272 139.357 C 223.534 129.796, 215.042 125.321, 195.695 118.499 C 186.790 115.358, 184.636 114.197, 183.445 111.894 C 180.819 106.816, 181.788 103.092, 187.234 97.335 L 190.228 94.169 186.293 91.685 C 176.636 85.589, 163.116 83.642, 152.500 86.819 M 313.496 114.994 C 313.834 115.540, 312.145 118.803, 309.744 122.244 C 306.006 127.599, 304.103 131.065, 299.995 140 C 299.616 140.825, 298.749 143.975, 298.069 147 C 297.390 150.025, 296.478 153.915, 296.043 155.645 C 295.041 159.627, 295.470 173.802, 296.810 181 C 298.894 192.202, 303.523 202.889, 310.110 211.707 C 312.250 214.571, 314 217.348, 314 217.877 C 314 218.407, 311.077 219.154, 307.505 219.536 C 287.196 221.711, 268.016 213.191, 257.084 197.140 C 252.415 190.284, 250.152 188.168, 246.948 187.660 C 243.306 187.083, 241.018 188.236, 231.356 195.524 C 226.523 199.169, 218.953 203.878, 214.534 205.987 C 205.932 210.093, 186.576 217, 183.670 217 C 181.725 217, 176.445 221.778, 177.369 222.702 C 177.689 223.022, 178.749 222.365, 179.725 221.243 C 180.729 220.089, 185.410 218.012, 190.500 216.463 C 210.214 210.465, 225.149 202.896, 237.015 192.890 C 240.588 189.877, 242.477 189, 245.390 189 C 249.463 189, 249.964 189.431, 256.930 198.911 C 268.015 213.995, 284.758 221.760, 303.999 220.739 C 317.433 220.027, 317.858 219.753, 313.604 214.562 C 306.435 205.813, 301.297 194.968, 298.413 182.500 C 296.159 172.758, 296.940 154.169, 300.008 144.500 C 303.015 135.024, 307.089 127.197, 312.418 120.654 C 314.863 117.652, 316.594 114.927, 316.265 114.598 C 315.257 113.590, 312.842 113.935, 313.496 114.994 M 178.467 231 C 178.832 232.375, 179.367 234.244, 179.657 235.153 C 180.384 237.439, 170.468 240.278, 163.313 239.832 C 160.389 239.649, 157.998 239.901, 157.999 240.391 C 158.001 241.799, 174.093 240.360, 178.250 238.579 C 182.597 236.718, 182.727 236.182, 179.902 231.774 C 178.109 228.978, 177.900 228.865, 178.467 231" stroke="none" fill="#54cc9c" fill-rule="evenodd"/><path d="M 157 87.098 C 155.625 87.678, 152.925 87.906, 151 87.604 C 149.075 87.303, 148.065 87.409, 148.755 87.841 C 149.620 88.381, 148.964 89.124, 146.647 90.228 C 144.797 91.111, 140.632 93.957, 137.392 96.554 L 131.500 101.275 136 96.486 C 138.475 93.852, 139.375 92.536, 138 93.561 C 136.625 94.587, 133.702 97.467, 131.506 99.963 C 129.309 102.458, 128.521 103.643, 129.756 102.595 C 130.990 101.547, 132 101.140, 132 101.690 C 132 102.860, 128.951 105.788, 127.500 106.012 C 126.950 106.097, 126.275 106.426, 126 106.744 C 125.725 107.061, 126.121 106.961, 126.880 106.521 C 127.823 105.974, 128.113 106.161, 127.796 107.111 C 127.542 107.875, 126.730 108.500, 125.992 108.500 C 125.253 108.500, 123.140 110.862, 121.296 113.750 C 119.451 116.638, 118.184 119, 118.480 119 C 118.776 119, 120.417 116.727, 122.126 113.950 C 126.058 107.560, 127.057 108.101, 123.260 114.564 C 120.388 119.452, 113.013 124.490, 110.198 123.487 C 109.482 123.232, 109.146 123.428, 109.452 123.923 C 109.758 124.418, 106.969 126.510, 103.254 128.572 C 99.539 130.633, 94.088 133.849, 91.141 135.717 C 88.193 137.586, 85.582 138.915, 85.338 138.672 C 85.094 138.428, 86.493 137.240, 88.447 136.033 C 91.673 134.039, 93.707 131.895, 90.750 133.605 C 86.810 135.884, 84.066 138.244, 84.268 139.180 C 84.396 139.769, 83.875 140.477, 83.111 140.755 C 82.155 141.102, 81.971 140.829, 82.521 139.880 C 82.961 139.121, 82.986 138.800, 82.577 139.167 C 82.168 139.533, 81.983 140.049, 82.167 140.312 C 82.659 141.018, 78.856 145, 77.690 145 C 77.140 145, 77.547 143.988, 78.595 142.750 L 80.500 140.500 78 142.467 C 67.445 150.773, 62.994 157.930, 63.055 166.500 C 63.074 169.250, 63.740 172.850, 64.535 174.500 C 65.628 176.769, 65.800 176.891, 65.240 175 C 64.833 173.625, 64.525 169.575, 64.556 166 C 64.619 158.574, 66.356 154.446, 71.813 148.750 C 77.388 142.931, 77.811 144.332, 72.300 150.362 C 67.237 155.902, 65 161.098, 65 167.319 C 65 174.112, 70.404 182.924, 77.983 188.488 C 80.747 190.517, 82.777 192.553, 82.493 193.012 C 82.042 193.740, 84.792 196.106, 88.750 198.395 C 91.707 200.105, 89.673 197.961, 86.447 195.967 C 84.493 194.760, 83.087 193.580, 83.322 193.345 C 83.557 193.110, 87.743 195.347, 92.624 198.315 C 97.506 201.284, 106.319 206.283, 112.210 209.424 C 119.737 213.437, 123.506 216.080, 124.894 218.317 C 125.980 220.068, 128.455 223.034, 130.395 224.908 C 132.335 226.783, 133.720 228.645, 133.472 229.045 C 133.225 229.446, 133.805 230.387, 134.761 231.137 C 136.335 232.370, 136.370 232.334, 135.128 230.750 C 133.138 228.213, 134.292 228.575, 140.231 232.350 C 143.129 234.192, 148.200 236.632, 151.500 237.771 C 154.800 238.910, 156.600 239.867, 155.500 239.897 C 154.400 239.928, 150.918 238.891, 147.763 237.593 C 144.608 236.296, 142.254 235.602, 142.532 236.052 C 142.810 236.502, 145.617 237.886, 148.769 239.128 C 159.351 243.296, 180.643 241.699, 182.603 236.591 C 182.887 235.851, 182.195 233.728, 181.064 231.873 C 178.460 227.603, 178.437 223.563, 181 221 C 182.100 219.900, 182.576 219, 182.057 219 C 181.538 219, 180.423 219.985, 179.580 221.190 C 178.736 222.394, 177.763 223.096, 177.417 222.750 C 176.458 221.791, 181.668 217, 183.670 217 C 186.577 217, 205.937 210.091, 214.500 205.998 C 218.900 203.895, 225.558 199.885, 229.296 197.087 C 236.947 191.360, 238.471 190.727, 234.924 194.750 L 232.500 197.500 235.219 195.105 C 236.715 193.787, 237.713 192.344, 237.437 191.899 C 236.571 190.497, 242.007 187.667, 245.566 187.667 C 249.415 187.667, 251.880 189.539, 256.116 195.680 C 259.406 200.449, 259.784 201.852, 257.250 199.890 C 255.833 198.793, 255.864 198.961, 257.411 200.773 C 258.461 202.005, 259.534 202.799, 259.794 202.539 C 260.055 202.279, 262.345 203.901, 264.884 206.144 C 276.682 216.568, 291.563 221.244, 307.505 219.536 C 312.391 219.013, 314 218.459, 314 217.298 C 314 215.972, 314.246 215.948, 315.750 217.128 C 317.334 218.370, 317.370 218.335, 316.137 216.761 C 315.387 215.805, 314.414 215.244, 313.975 215.515 C 313.536 215.787, 311.617 213.869, 309.712 211.254 C 302.162 200.896, 296.383 185.670, 297.342 178.665 C 297.732 175.814, 297.632 175.131, 297.026 176.500 L 296.141 178.500 295.921 176.500 C 295.312 170.947, 295.405 158.223, 296.074 155.543 C 296.492 153.869, 297.379 150.025, 298.047 147 C 299.529 140.278, 299.994 139.403, 301.155 141.143 C 301.750 142.034, 301.847 141.580, 301.440 139.820 C 300.988 137.874, 301.687 135.558, 303.991 131.360 C 308.205 123.682, 310.981 119.870, 311.931 120.457 C 312.359 120.722, 313.787 119.715, 315.105 118.219 L 317.500 115.500 314.750 117.924 C 313.238 119.258, 312 119.847, 312 119.233 C 312 118.620, 312.481 117.821, 313.068 117.458 C 313.656 117.095, 313.874 116.114, 313.553 115.278 C 313.118 114.144, 313.481 113.893, 314.985 114.286 C 316.093 114.576, 317 114.469, 317 114.048 C 317 112.917, 303.061 110.751, 299 111.250 C 295.759 111.648, 295.832 111.696, 300 111.898 C 302.475 112.017, 306.300 112.461, 308.500 112.884 C 311.500 113.461, 310.125 113.641, 303 113.604 C 291.527 113.544, 284.559 115.106, 276.216 119.609 C 269.342 123.318, 268.515 123.593, 269.622 121.803 C 270.978 119.609, 264.555 124.773, 260.500 129.138 C 257.091 132.806, 257.341 132.671, 262.190 128.221 C 269.917 121.131, 270.815 121.608, 263.554 128.945 C 260.319 132.215, 257.259 134.803, 256.755 134.695 C 256.251 134.588, 255.145 135.625, 254.297 137 L 252.754 139.500 254.855 137 C 257.694 133.621, 257.549 135.170, 254.587 139.863 C 253.259 141.965, 250.792 144.258, 249.103 144.957 C 245.876 146.294, 239 145.633, 239 143.986 C 239 143.478, 239.787 143.362, 240.750 143.729 C 244.188 145.037, 227.362 131.722, 222.250 129.089 C 218.204 127.005, 219.890 128.745, 224.579 131.493 C 227.097 132.969, 228.891 134.442, 228.566 134.767 C 228.241 135.092, 226.716 134.427, 225.177 133.289 C 221.450 130.533, 210.706 125.131, 204.500 122.891 C 201.750 121.899, 199.607 120.634, 199.738 120.080 C 199.869 119.525, 199.322 119.323, 198.524 119.629 C 196.099 120.560, 184.296 116.110, 182.782 113.695 C 182.025 112.488, 181.282 109.843, 181.132 107.817 C 180.849 104.004, 182.504 99.575, 183.892 100.433 C 184.327 100.702, 186.115 99.444, 187.866 97.638 C 190.879 94.530, 190.954 94.271, 189.274 92.806 C 187.252 91.041, 183 88.710, 183 89.366 C 183 89.606, 184.638 90.769, 186.640 91.950 L 190.280 94.098 187.463 97.039 C 185.914 98.656, 184.424 99.757, 184.152 99.486 C 183.881 99.214, 184.678 97.907, 185.924 96.581 L 188.189 94.170 185.844 92.636 C 178.254 87.671, 162.717 84.688, 157 87.098 M 179 88 C 179.825 88.533, 180.950 88.969, 181.500 88.969 C 182.050 88.969, 181.825 88.533, 181 88 C 180.175 87.467, 179.050 87.031, 178.500 87.031 C 177.950 87.031, 178.175 87.467, 179 88 M 142.441 90.555 C 140.577 92.049, 140.589 92.067, 142.750 91.020 C 143.988 90.420, 145 89.720, 145 89.465 C 145 88.700, 144.481 88.921, 142.441 90.555 M 182.232 107 C 182.232 108.925, 182.438 109.713, 182.689 108.750 C 182.941 107.787, 182.941 106.213, 182.689 105.250 C 182.438 104.287, 182.232 105.075, 182.232 107 M 288.500 112.661 C 284.821 113.449, 277.873 116.206, 278.354 116.687 C 278.615 116.948, 279.760 116.663, 280.899 116.054 C 282.038 115.445, 285.789 114.328, 289.235 113.573 C 292.681 112.818, 294.375 112.208, 293 112.216 C 291.625 112.225, 289.600 112.425, 288.500 112.661 M 185.441 114.445 C 186.509 115.300, 187.821 116, 188.358 116 C 189.628 116, 189.061 115.538, 186 114.080 C 183.643 112.958, 183.611 112.978, 185.441 114.445 M 113.750 120.572 C 110.012 122.600, 110.239 123.445, 114 121.500 C 115.650 120.647, 117 119.735, 117 119.474 C 117 118.831, 116.893 118.867, 113.750 120.572 M 309.196 124.750 C 306.920 127.977, 301.988 137.584, 302.026 138.717 C 302.041 139.148, 303.782 136.241, 305.897 132.259 C 308.011 128.276, 310.304 124.339, 310.993 123.509 C 311.681 122.679, 311.995 122, 311.691 122 C 311.386 122, 310.263 123.237, 309.196 124.750 M 210 124 C 210.825 124.533, 211.950 124.969, 212.500 124.969 C 213.050 124.969, 212.825 124.533, 212 124 C 211.175 123.467, 210.050 123.031, 209.500 123.031 C 208.950 123.031, 209.175 123.467, 210 124 M 98.250 129.030 C 95.362 130.686, 93 132.275, 93 132.562 C 93 133.109, 101.802 128.285, 103.450 126.835 C 105.202 125.295, 103.539 125.997, 98.250 129.030 M 229.062 135.691 C 229.143 136.749, 238.071 143.262, 238.649 142.684 C 238.893 142.441, 237.384 140.912, 235.296 139.288 C 230.472 135.536, 228.984 134.678, 229.062 135.691 M 250.825 141.604 C 249.943 142.486, 247.709 143.565, 245.861 144.001 C 242.790 144.727, 242.732 144.804, 245.194 144.898 C 246.750 144.957, 249.074 143.957, 250.694 142.532 C 252.237 141.174, 253.259 140.049, 252.964 140.032 C 252.670 140.014, 251.707 140.722, 250.825 141.604 M 69 182.444 C 71.791 185.719, 76.261 189.778, 79.416 191.904 C 81.866 193.555, 81.528 193.215, 73 185.438 C 69.425 182.179, 67.625 180.831, 69 182.444 M 239.921 190.750 C 238.794 192.239, 238.806 192.313, 239.998 191.250 C 241.708 189.725, 247.342 189.619, 250.316 191.055 C 252.426 192.074, 252.434 192.057, 250.559 190.555 C 247.894 188.420, 241.597 188.535, 239.921 190.750 M 252.970 194.944 C 253.543 196.014, 254.505 197.194, 255.109 197.567 C 255.713 197.941, 255.434 197.066, 254.489 195.623 C 252.487 192.568, 251.451 192.105, 252.970 194.944 M 302.031 194.500 C 302.031 195.050, 302.467 196.175, 303 197 C 303.533 197.825, 303.969 198.050, 303.969 197.500 C 303.969 196.950, 303.533 195.825, 303 195 C 302.467 194.175, 302.031 193.950, 302.031 194.500 M 223.089 202.598 C 218.464 205.569, 215.089 208, 215.589 208 C 216.731 208, 232 198.262, 232 197.534 C 232 196.828, 232.631 196.470, 223.089 202.598 M 91.511 199.828 C 92.922 201.354, 108.225 210.004, 109.476 209.982 C 110.039 209.972, 108.050 208.613, 105.055 206.962 C 102.060 205.312, 97.560 202.785, 95.055 201.348 C 92.550 199.910, 90.955 199.226, 91.511 199.828 M 304.017 199.196 C 303.985 200.494, 310.896 211.669, 312.608 213.089 C 313.544 213.865, 312.946 212.475, 311.280 210 C 309.613 207.525, 307.301 203.925, 306.141 202 C 304.982 200.075, 304.026 198.813, 304.017 199.196 M 263.776 207.690 C 266.128 209.840, 269.503 212.385, 271.276 213.344 C 274.404 215.035, 274.426 215.034, 272.024 213.294 C 270.662 212.307, 268.187 210.364, 266.524 208.975 C 261.164 204.500, 259.370 203.661, 263.776 207.690 M 211 209 C 210.175 209.533, 209.950 209.969, 210.500 209.969 C 211.050 209.969, 212.175 209.533, 213 209 C 213.825 208.467, 214.050 208.031, 213.500 208.031 C 212.950 208.031, 211.825 208.467, 211 209 M 189 217 C 187.172 218.181, 188.751 218.181, 191.500 217 C 192.819 216.433, 192.989 216.122, 192 216.086 C 191.175 216.055, 189.825 216.467, 189 217 M 280.500 218.055 C 282.700 219.096, 285.175 219.938, 286 219.927 C 286.825 219.916, 285.250 219.028, 282.500 217.954 C 276.241 215.510, 275.230 215.561, 280.500 218.055 M 290.191 221.150 C 291.461 221.508, 296.325 221.801, 301 221.801 C 305.675 221.801, 310.539 221.508, 311.809 221.150 C 313.079 220.793, 308.215 220.500, 301 220.500 C 293.785 220.500, 288.921 220.793, 290.191 221.150 M 127 224.500 C 128.292 225.875, 129.574 227, 129.849 227 C 130.124 227, 129.292 225.875, 128 224.500 C 126.708 223.125, 125.426 222, 125.151 222 C 124.876 222, 125.708 223.125, 127 224.500 M 178.467 231 C 178.832 232.375, 179.367 234.244, 179.657 235.153 C 180.384 237.439, 170.468 240.278, 163.313 239.832 C 160.389 239.649, 157.998 239.901, 157.999 240.391 C 158.001 241.799, 174.093 240.360, 178.250 238.579 C 182.597 236.718, 182.727 236.182, 179.902 231.774 C 178.109 228.978, 177.900 228.865, 178.467 231" stroke="none" fill="#44d49c" fill-rule="evenodd"/></svg>