<svg xmlns="http://www.w3.org/2000/svg" width="423" height="415" viewBox="0 0 423 415" version="1.1"><path d="M 164.500 60.488 C 160.100 61.180, 152.977 62.737, 148.670 63.948 C 144.364 65.159, 137.660 67.444, 133.772 69.026 C 129.884 70.608, 123.058 74.015, 118.602 76.598 C 114.146 79.180, 107.350 83.672, 103.500 86.580 C 99.650 89.488, 93.051 95.385, 88.837 99.684 C 84.622 103.983, 78.594 111.100, 75.441 115.500 C 72.288 119.900, 67.331 128.450, 64.425 134.500 C 61.519 140.550, 58.196 148.425, 57.041 152 C 55.885 155.575, 54.007 163, 52.866 168.500 C 51.366 175.734, 50.779 182.372, 50.744 192.500 C 50.712 201.639, 51.283 209.625, 52.389 215.500 C 53.320 220.450, 55.405 228.665, 57.021 233.755 C 58.638 238.845, 62.061 247.329, 64.629 252.608 C 67.197 257.887, 71.759 265.647, 74.765 269.853 C 77.772 274.059, 82.529 279.975, 85.337 283 C 88.145 286.025, 93.264 291.025, 96.711 294.110 C 100.159 297.196, 106.247 301.918, 110.240 304.603 C 114.233 307.288, 121.325 311.357, 126 313.646 C 130.675 315.935, 138.775 319.187, 144 320.873 C 149.225 322.559, 157.435 324.616, 162.244 325.445 C 167.053 326.274, 174.504 327.245, 178.802 327.604 C 183.103 327.963, 191.313 327.727, 197.059 327.080 C 202.801 326.434, 208.896 325.464, 210.603 324.924 C 212.310 324.384, 214.747 322.834, 216.020 321.479 C 217.741 319.646, 218.333 317.847, 218.333 314.444 C 218.333 310.636, 217.800 309.340, 215.143 306.686 C 212.227 303.774, 211.461 303.518, 206.226 303.710 C 203.077 303.825, 199.600 304.050, 198.500 304.210 C 196.606 304.485, 196.473 303.791, 196 291.164 L 195.500 277.829 192.234 274.914 C 189.854 272.790, 187.948 272, 185.207 272 C 183.138 272, 180.397 272.734, 179.117 273.631 C 177.836 274.528, 176.161 276.763, 175.394 278.599 C 174.492 280.758, 174 285.771, 174 292.801 C 174 298.777, 173.766 303.900, 173.481 304.186 C 173.195 304.471, 169.509 304.104, 165.289 303.371 C 161.069 302.637, 153.990 300.840, 149.558 299.378 C 145.126 297.916, 138.800 295.380, 135.500 293.743 C 132.200 292.106, 126.350 288.685, 122.500 286.141 C 118.650 283.598, 112.252 278.431, 108.281 274.661 C 104.311 270.890, 98.607 264.587, 95.607 260.653 C 92.606 256.719, 88.311 250.074, 86.062 245.887 C 83.814 241.700, 80.841 234.950, 79.456 230.887 C 78.071 226.824, 76.277 220.660, 75.469 217.188 C 74.661 213.716, 74 209.329, 74 207.438 L 74 204 86.066 204 C 92.982 204, 99.064 203.523, 100.316 202.883 C 101.517 202.269, 103.277 200.806, 104.228 199.633 C 105.245 198.377, 105.965 195.759, 105.978 193.266 C 105.995 189.983, 105.345 188.298, 103.084 185.766 L 100.169 182.500 87.834 182.207 C 81.050 182.046, 74.985 181.741, 74.356 181.530 C 73.514 181.246, 73.592 179.084, 74.651 173.322 C 75.441 169.020, 77.040 162.575, 78.204 159 C 79.367 155.425, 81.625 149.583, 83.222 146.017 C 84.819 142.452, 88.660 135.702, 91.759 131.017 C 94.858 126.333, 101.243 118.671, 105.947 113.992 C 110.651 109.313, 117.731 103.336, 121.680 100.712 C 125.629 98.087, 133.054 93.957, 138.180 91.534 C 143.306 89.111, 150.801 86.218, 154.836 85.104 C 158.870 83.991, 164.796 82.783, 168.004 82.420 L 173.836 81.760 174.168 94.864 L 174.500 107.967 177.580 111.044 C 180 113.462, 181.551 114.133, 184.825 114.178 C 187.125 114.210, 190.134 113.487, 191.540 112.566 C 192.942 111.647, 194.519 109.765, 195.045 108.383 C 195.570 107.001, 196 100.437, 196 93.797 L 196 81.724 202.554 82.395 C 206.159 82.765, 212.743 84.215, 217.185 85.618 C 221.627 87.021, 228.558 89.672, 232.586 91.508 C 236.615 93.344, 243.067 96.887, 246.924 99.382 C 250.781 101.878, 257.609 107.425, 262.098 111.709 C 266.586 115.994, 272.200 122.021, 274.574 125.103 C 276.948 128.184, 280.525 133.494, 282.523 136.903 C 284.521 140.312, 287.498 146.341, 289.140 150.301 C 290.781 154.260, 293.220 162, 294.561 167.500 C 295.901 173, 296.998 178.512, 296.999 179.750 C 297 181.959, 296.780 182, 284.950 182 C 276.136 182, 272.113 182.407, 269.967 183.517 C 268.354 184.351, 266.351 186.354, 265.517 187.967 C 264.683 189.581, 264 191.845, 264 193 C 264 194.155, 264.672 196.400, 265.494 197.989 C 266.316 199.578, 267.991 201.581, 269.217 202.439 C 270.943 203.648, 274.218 204, 283.754 204 C 293.561 204, 296.175 204.294, 296.617 205.444 C 296.922 206.238, 296.155 211.650, 294.913 217.471 C 292.782 227.458, 292.747 228.246, 294.290 231.481 C 295.189 233.367, 297.361 235.653, 299.117 236.561 C 301.189 237.632, 303.534 238.013, 305.798 237.645 C 307.717 237.334, 310.334 236.095, 311.614 234.893 C 312.895 233.690, 314.390 231.310, 314.937 229.603 C 315.485 227.896, 316.717 222.900, 317.675 218.500 C 319.005 212.389, 319.395 206.132, 319.325 192 C 319.239 174.836, 319.015 172.659, 316.221 161.857 C 314.564 155.454, 311.318 145.902, 309.006 140.631 C 306.694 135.359, 302.985 127.999, 300.764 124.273 C 298.543 120.548, 293.416 113.396, 289.371 108.380 C 285.326 103.363, 279.201 96.821, 275.758 93.841 C 272.316 90.861, 267.666 87.003, 265.425 85.266 C 263.184 83.530, 257.953 80.101, 253.801 77.646 C 249.649 75.191, 242.973 71.744, 238.966 69.985 C 234.959 68.226, 228.009 65.723, 223.521 64.422 C 219.032 63.121, 210.782 61.368, 205.187 60.528 C 199.591 59.688, 189.948 59.052, 183.757 59.115 C 177.565 59.178, 168.900 59.796, 164.500 60.488 M 175.942 60.391 C 175.635 60.698, 172.935 61.182, 169.942 61.468 C 166.949 61.753, 162.700 62.255, 160.500 62.584 C 158.300 62.912, 152.863 64.216, 148.417 65.482 C 143.972 66.748, 137.152 69.120, 133.262 70.755 C 129.372 72.389, 121.354 76.600, 115.444 80.113 C 107.995 84.540, 101.634 89.409, 94.715 95.979 C 89.224 101.193, 82.194 108.843, 79.093 112.979 C 75.992 117.116, 72.130 122.750, 70.512 125.500 C 68.895 128.250, 66.282 133.200, 64.708 136.500 C 63.133 139.800, 60.571 146.325, 59.015 151 C 57.459 155.675, 55.668 161.975, 55.036 165 C 54.404 168.025, 53.462 172.419, 52.943 174.764 C 52.424 177.110, 52 185.316, 52 193 C 52 200.684, 52.432 208.890, 52.959 211.236 C 53.487 213.581, 54.443 218.200, 55.084 221.500 C 55.725 224.800, 57.150 230.200, 58.251 233.500 C 59.352 236.800, 61.861 243.100, 63.827 247.500 C 65.793 251.900, 69.077 258.302, 71.125 261.728 C 73.173 265.153, 77.011 270.778, 79.654 274.228 C 82.297 277.677, 87.457 283.498, 91.121 287.163 C 94.786 290.828, 101.095 296.263, 105.142 299.241 C 109.189 302.220, 115.200 306.217, 118.500 308.124 C 121.800 310.032, 126.525 312.529, 129 313.674 C 131.475 314.819, 137.699 317.194, 142.832 318.951 C 147.964 320.709, 154.489 322.595, 157.332 323.144 C 160.174 323.693, 165.425 324.518, 169 324.978 C 172.575 325.439, 182.086 325.665, 190.135 325.482 C 198.185 325.299, 206.648 324.587, 208.942 323.899 C 211.370 323.172, 213.926 321.509, 215.057 319.920 C 216.126 318.419, 217 315.898, 217 314.318 C 217 312.738, 216.298 310.442, 215.439 309.217 C 214.581 307.991, 212.518 306.285, 210.856 305.426 C 208.479 304.196, 207.178 304.091, 204.767 304.931 C 203.081 305.519, 200.445 306, 198.910 306 C 197.374 306, 195.776 305.446, 195.357 304.769 C 194.939 304.092, 194.546 298.354, 194.485 292.019 C 194.424 285.683, 194.058 279.560, 193.671 278.410 C 193.284 277.261, 191.826 275.710, 190.432 274.963 C 189.037 274.217, 186.245 273.653, 184.226 273.711 C 181.578 273.786, 179.922 274.552, 178.278 276.463 C 176.187 278.894, 176 280.075, 176 290.865 C 176 299.244, 175.606 303.156, 174.628 304.494 C 173.341 306.254, 172.803 306.287, 165.878 305.029 C 161.820 304.291, 154 302.235, 148.500 300.459 C 143 298.682, 134.450 294.909, 129.500 292.074 C 124.550 289.238, 118.925 285.707, 117 284.226 C 115.075 282.745, 109.428 277.476, 104.451 272.517 C 99.473 267.558, 93.332 260.350, 90.803 256.500 C 88.274 252.650, 85.298 247.700, 84.188 245.500 C 83.079 243.300, 81.290 239.475, 80.213 237 C 79.136 234.525, 77.569 230.250, 76.730 227.500 C 75.892 224.750, 74.731 220.475, 74.151 218 C 73.571 215.525, 72.822 211.358, 72.486 208.741 C 71.938 204.475, 72.101 203.898, 74.062 203.173 C 75.265 202.728, 80.355 202.469, 85.374 202.598 C 90.393 202.726, 96.084 202.430, 98.021 201.939 C 100.286 201.365, 102.158 200.002, 103.271 198.119 C 104.222 196.509, 105 194.123, 105 192.818 C 105 191.513, 104.302 189.448, 103.449 188.230 C 102.596 187.012, 100.908 185.449, 99.699 184.758 C 98.417 184.024, 92.288 183.292, 85 183 L 72.500 182.500 72.713 179 C 72.830 177.075, 73.462 172.350, 74.117 168.500 C 74.772 164.650, 75.688 161.072, 76.154 160.550 C 76.619 160.027, 77.002 158.902, 77.005 158.050 C 77.008 157.197, 78.940 152.225, 81.299 147 C 83.659 141.775, 87.998 133.900, 90.943 129.500 C 93.888 125.100, 100.026 117.831, 104.583 113.347 C 109.140 108.863, 115.741 103.145, 119.251 100.640 C 122.762 98.135, 128.079 94.806, 131.067 93.243 C 134.055 91.679, 140.100 88.967, 144.500 87.217 C 148.900 85.467, 155.425 83.383, 159 82.587 C 162.575 81.790, 167.162 80.889, 169.193 80.584 C 171.849 80.185, 173.347 80.490, 174.526 81.669 C 175.716 82.859, 176.111 84.846, 175.964 88.905 C 175.852 91.982, 175.815 97.347, 175.881 100.827 C 175.986 106.405, 176.346 107.500, 178.923 110.077 C 181.021 112.175, 182.817 113, 185.287 113 C 187.671 113, 189.537 112.190, 191.364 110.364 C 192.814 108.914, 194.053 107.451, 194.118 107.114 C 194.182 106.776, 194.322 100.998, 194.427 94.273 C 194.533 87.549, 194.935 81.732, 195.320 81.346 C 195.706 80.961, 197.929 80.680, 200.260 80.721 C 202.592 80.763, 207.425 81.544, 211 82.457 C 214.575 83.371, 220.200 85.051, 223.500 86.193 C 226.800 87.334, 232.200 89.615, 235.500 91.262 C 238.800 92.908, 244.523 96.205, 248.219 98.587 C 251.914 100.970, 258.609 106.425, 263.097 110.709 C 267.584 114.994, 273.626 121.650, 276.523 125.500 C 279.420 129.350, 283.778 136.325, 286.207 141 C 288.636 145.675, 291.239 151.525, 291.992 154 C 292.744 156.475, 293.673 158.950, 294.054 159.500 C 294.436 160.050, 295.001 161.850, 295.309 163.500 C 295.617 165.150, 296.480 169.707, 297.226 173.627 C 297.972 177.546, 298.414 181.259, 298.208 181.877 C 297.959 182.624, 293.831 183, 285.867 183 C 276.961 183, 273.126 183.401, 270.872 184.566 C 269.206 185.428, 267.244 187.566, 266.512 189.317 C 265.780 191.068, 265.412 193.702, 265.692 195.171 C 265.973 196.640, 267.279 198.853, 268.595 200.089 C 270.783 202.145, 272.109 202.362, 284.170 202.645 C 293.475 202.863, 297.589 203.328, 298.154 204.227 C 298.594 204.927, 298.716 206.267, 298.424 207.205 C 298.132 208.143, 297.446 211.293, 296.898 214.205 C 296.350 217.117, 295.653 221.980, 295.348 225.011 C 294.842 230.051, 295.028 230.755, 297.533 233.261 C 299.672 235.400, 301.218 236, 304.585 236 C 308.286 236, 309.244 235.538, 311.330 232.750 C 312.667 230.963, 314.020 228.150, 314.336 226.500 C 314.652 224.850, 315.437 221.250, 316.080 218.500 C 316.724 215.750, 317.456 205.400, 317.708 195.500 C 318.001 183.942, 317.751 175.532, 317.008 172 C 316.371 168.975, 315.403 164.700, 314.856 162.500 C 314.308 160.300, 312.944 155.575, 311.823 152 C 310.703 148.425, 308.239 142.130, 306.348 138.012 C 304.457 133.893, 300.804 127.143, 298.230 123.012 C 295.655 118.880, 291.080 112.575, 288.061 109 C 285.043 105.425, 280.307 100.222, 277.537 97.439 C 274.767 94.655, 269.125 89.904, 265 86.880 C 260.875 83.856, 254.350 79.609, 250.500 77.441 C 246.650 75.273, 242.262 72.937, 240.750 72.250 C 239.238 71.562, 236.875 70.550, 235.500 70 C 234.125 69.450, 231.988 68.595, 230.750 68.100 C 229.512 67.605, 226.025 66.492, 223 65.626 C 219.975 64.761, 216.150 63.826, 214.500 63.549 C 212.850 63.272, 210.375 62.803, 209 62.506 C 207.625 62.209, 204.250 61.697, 201.500 61.368 C 198.750 61.040, 192 60.560, 186.500 60.302 C 181 60.044, 176.249 60.084, 175.942 60.391 M 181.500 149.403 C 179.850 150.131, 177.600 151.734, 176.500 152.966 C 174.680 155.003, 174.471 156.879, 174.176 173.852 C 173.975 185.449, 174.268 193.898, 174.951 196.196 C 175.554 198.229, 177.223 200.817, 178.659 201.946 C 181.102 203.868, 182.603 204, 202.058 204 L 222.847 204 225.889 201.440 C 227.723 199.897, 229.190 197.506, 229.580 195.423 C 229.960 193.397, 229.704 190.700, 228.961 188.906 C 228.264 187.222, 226.548 185.092, 225.148 184.173 C 223.221 182.906, 219.431 182.379, 209.551 182 L 196.500 181.500 196 168.500 C 195.714 161.065, 194.980 154.593, 194.285 153.380 C 193.616 152.215, 191.523 150.527, 189.633 149.630 C 187.744 148.734, 185.816 148.018, 185.349 148.039 C 184.882 148.061, 183.150 148.674, 181.500 149.403 M 178.923 152.923 L 176 155.846 175.858 170.173 C 175.779 178.053, 175.734 185.625, 175.757 187 C 175.780 188.375, 175.844 191.162, 175.899 193.194 C 175.963 195.533, 176.873 197.904, 178.380 199.655 L 180.760 202.423 200.847 202.496 C 211.895 202.536, 221.846 202.231, 222.961 201.819 C 224.075 201.406, 225.815 199.708, 226.827 198.044 C 227.839 196.380, 228.555 194.002, 228.417 192.759 C 228.279 191.517, 228.129 190.231, 228.083 189.903 C 228.037 189.575, 227.175 188.354, 226.166 187.191 C 225.157 186.028, 223.238 184.661, 221.900 184.152 C 220.563 183.644, 214.303 183.157, 207.991 183.071 C 201.678 182.984, 196.098 182.498, 195.589 181.989 C 195.081 181.481, 194.612 175.538, 194.548 168.783 C 194.463 159.937, 194.026 155.875, 192.986 154.268 C 192.191 153.040, 190.227 151.578, 188.621 151.018 C 187.015 150.458, 184.834 150, 183.774 150 C 182.714 150, 180.531 151.315, 178.923 152.923 M 260.500 242.877 C 258.850 243.310, 255.377 244.608, 252.783 245.761 C 250.188 246.915, 245.756 250.019, 242.933 252.659 C 240.110 255.300, 236.776 259.494, 235.525 261.980 C 234.273 264.466, 232.743 268.885, 232.124 271.799 C 231.506 274.714, 231 280.594, 231 284.866 C 231 289.137, 231.491 295.303, 232.091 298.566 C 232.691 301.830, 234.516 307.969, 236.147 312.209 C 237.779 316.448, 241.396 323.413, 244.185 327.686 C 246.975 331.960, 253.141 339.299, 257.889 343.997 C 262.636 348.695, 271.240 356.063, 277.010 360.370 C 282.779 364.677, 289.265 369.105, 291.423 370.209 C 294.151 371.606, 296.504 372.062, 299.152 371.706 C 301.600 371.378, 305.909 369.138, 311.229 365.427 C 315.778 362.255, 322.650 357.098, 326.500 353.968 C 330.350 350.838, 336.586 345.005, 340.358 341.006 C 344.130 337.006, 348.931 331.080, 351.027 327.837 C 353.123 324.594, 356.223 318.614, 357.915 314.549 C 359.608 310.484, 361.728 304.085, 362.628 300.329 C 363.528 296.573, 364.272 289.450, 364.281 284.500 C 364.291 279.187, 363.663 273.414, 362.750 270.407 C 361.898 267.607, 360.237 263.425, 359.059 261.116 C 357.881 258.807, 355.091 255.091, 352.860 252.860 C 350.628 250.628, 345.809 247.388, 342.151 245.659 C 336.153 242.823, 334.567 242.514, 326 242.507 C 319.264 242.502, 315.156 243.019, 311.879 244.283 C 309.337 245.264, 305.106 247.597, 302.475 249.467 L 297.693 252.867 294.554 250.474 C 292.828 249.157, 288.735 246.851, 285.458 245.350 C 280.837 243.232, 277.705 242.560, 271.500 242.355 C 267.100 242.210, 262.150 242.445, 260.500 242.877 M 262.115 244.185 C 259.153 244.646, 254.499 246.236, 251.774 247.719 C 249.049 249.203, 245.036 252.199, 242.857 254.378 C 240.678 256.557, 237.952 260.401, 236.799 262.920 C 235.647 265.439, 234.101 269.750, 233.364 272.500 C 232.627 275.250, 232.025 280.875, 232.027 285 C 232.029 289.125, 232.924 296.100, 234.016 300.500 C 235.108 304.900, 236.396 309.400, 236.879 310.500 C 237.361 311.600, 239.228 315.539, 241.029 319.254 C 242.830 322.968, 247.272 329.703, 250.901 334.221 C 254.531 338.738, 261.325 345.757, 266 349.818 C 270.675 353.879, 278.775 360.072, 284 363.580 C 289.225 367.089, 294.852 370.228, 296.505 370.556 C 298.979 371.047, 300.925 370.233, 307.505 365.958 C 311.902 363.101, 318.650 358.284, 322.500 355.253 C 326.350 352.222, 333.292 345.863, 337.927 341.121 C 342.563 336.379, 348.044 329.891, 350.109 326.702 C 352.173 323.513, 355.111 317.663, 356.638 313.702 C 358.165 309.741, 359.514 306.050, 359.638 305.500 C 359.761 304.950, 360.568 301.891, 361.431 298.701 C 362.294 295.512, 363 289.181, 363 284.633 C 363 279.945, 362.302 274.010, 361.390 270.932 C 360.504 267.944, 358.973 263.925, 357.987 262 C 357.002 260.075, 354.400 256.620, 352.206 254.322 C 350.012 252.024, 345.921 248.980, 343.115 247.558 C 340.309 246.136, 337.784 244.987, 337.502 245.005 C 337.221 245.022, 335.981 244.798, 334.746 244.507 C 333.510 244.216, 330.664 243.814, 328.419 243.614 C 326.174 243.414, 321.893 243.633, 318.904 244.102 C 315.915 244.571, 311.226 246.088, 308.485 247.474 C 305.743 248.860, 302.246 250.995, 300.714 252.219 C 298.420 254.051, 297.625 254.230, 296.214 253.228 C 295.271 252.559, 292.250 250.656, 289.500 249 C 286.750 247.343, 282.925 245.554, 281 245.023 C 279.075 244.492, 275.250 243.898, 272.500 243.702 C 269.750 243.507, 265.077 243.724, 262.115 244.185 M 264.721 263.484 C 262.093 264.156, 258.853 265.729, 257.522 266.980 C 256.190 268.230, 254.156 271.265, 253 273.722 C 251.420 277.085, 250.949 279.862, 251.097 284.940 C 251.219 289.105, 252.344 294.911, 254.036 300.101 C 255.544 304.728, 258.474 311.407, 260.547 314.944 C 262.620 318.481, 267.755 324.778, 271.958 328.938 C 276.161 333.097, 280.478 337.175, 281.550 338 C 282.623 338.826, 286.357 341.638, 289.849 344.250 C 293.341 346.863, 296.790 349, 297.512 349 C 298.235 349, 302.353 346.378, 306.663 343.174 C 310.974 339.969, 317.146 334.920, 320.381 331.953 C 323.616 328.987, 328.048 324.142, 330.231 321.187 C 332.414 318.232, 335.697 312.785, 337.527 309.082 C 339.357 305.379, 341.562 299.618, 342.427 296.280 C 343.292 292.942, 344 287.449, 344 284.074 C 344 280.698, 343.301 276.263, 342.447 274.218 C 341.593 272.173, 339.719 269.273, 338.282 267.773 C 336.845 266.273, 334.057 264.498, 332.085 263.828 C 330.113 263.158, 327.028 262.662, 325.230 262.726 C 323.431 262.789, 319.929 263.824, 317.448 265.025 C 314.968 266.226, 311.489 269.030, 309.719 271.255 C 307.949 273.481, 305.297 276.584, 303.827 278.151 C 301.834 280.275, 300.225 281, 297.500 281 C 294.793 281, 293.154 280.271, 291.173 278.184 C 289.703 276.635, 287.240 273.705, 285.699 271.674 C 284.159 269.642, 281.818 267.272, 280.498 266.406 C 279.177 265.541, 276.162 264.255, 273.798 263.548 C 270.366 262.522, 268.537 262.509, 264.721 263.484 M 264.170 264.716 C 262.888 264.960, 260.116 266.884, 258.009 268.991 C 255.050 271.950, 253.910 274.116, 252.996 278.517 C 252.081 282.927, 252.087 285.714, 253.023 290.857 C 253.688 294.511, 255.729 301.006, 257.557 305.291 C 259.386 309.576, 262.940 315.964, 265.453 319.487 C 267.967 323.010, 272.831 328.369, 276.262 331.396 C 279.693 334.423, 285.837 339.395, 289.916 342.443 L 297.333 347.986 300.082 346.243 C 301.594 345.284, 306.484 341.622, 310.948 338.104 C 315.413 334.587, 321.378 329.187, 324.204 326.104 C 327.030 323.022, 331.070 317.835, 333.182 314.578 C 335.294 311.322, 338.201 305.022, 339.642 300.578 C 341.520 294.787, 342.285 290.235, 342.343 284.500 C 342.400 278.802, 341.941 275.599, 340.748 273.369 C 339.826 271.647, 337.721 269.102, 336.071 267.713 C 334.420 266.324, 331.304 264.889, 329.147 264.525 C 326.990 264.160, 323.270 264.389, 320.880 265.032 C 317.939 265.824, 315.236 267.598, 312.517 270.520 C 310.308 272.895, 307.375 276.233, 306 277.939 C 304.625 279.644, 302.150 281.407, 300.500 281.855 C 298.850 282.304, 296.043 282.284, 294.263 281.811 C 292.046 281.221, 289.803 279.303, 287.146 275.725 C 285.013 272.851, 282.337 269.670, 281.200 268.655 C 280.063 267.640, 277.415 266.197, 275.316 265.449 C 273.217 264.700, 270.375 264.129, 269 264.180 C 267.625 264.231, 265.451 264.472, 264.170 264.716" stroke="none" fill="#54cc9c" fill-rule="evenodd"/><path d="M 164 59.483 C 159.875 60.186, 154.475 61.280, 152 61.914 C 149.525 62.548, 144.216 64.231, 140.202 65.652 C 136.188 67.074, 133.102 68.436, 133.344 68.677 C 133.586 68.919, 135.403 68.440, 137.383 67.613 C 139.363 66.786, 144.436 65.140, 148.657 63.956 C 152.878 62.772, 160.419 61.180, 165.416 60.419 C 170.412 59.658, 179.115 59.028, 184.757 59.018 C 190.398 59.008, 199.623 59.691, 205.257 60.535 C 210.890 61.380, 218.581 62.987, 222.346 64.106 C 226.111 65.226, 229.384 65.949, 229.619 65.714 C 229.855 65.479, 225.874 64.120, 220.773 62.694 C 215.673 61.268, 207.980 59.629, 203.678 59.051 C 199.375 58.473, 190.375 58.046, 183.678 58.103 C 176.980 58.159, 168.125 58.780, 164 59.483 M 175.942 60.391 C 175.635 60.698, 172.935 61.182, 169.942 61.468 C 166.949 61.753, 162.700 62.255, 160.500 62.584 C 158.300 62.912, 152.900 64.216, 148.500 65.481 C 144.100 66.747, 138.025 68.759, 135 69.953 C 131.975 71.146, 125.117 74.593, 119.760 77.613 C 114.403 80.632, 107.946 84.685, 105.411 86.619 C 102.877 88.554, 100.588 89.921, 100.324 89.657 C 100.060 89.394, 102.242 87.411, 105.172 85.252 C 108.103 83.092, 114.091 79.227, 118.479 76.663 C 122.868 74.098, 125.977 72, 125.389 72 C 124.800 72, 120.611 74.229, 116.079 76.953 C 111.547 79.677, 104.764 84.390, 101.006 87.426 C 97.248 90.462, 91.207 95.996, 87.582 99.723 C 83.957 103.450, 79.068 109.083, 76.718 112.239 C 74.367 115.396, 71.605 119.446, 70.580 121.239 C 69.555 123.033, 69.152 124.050, 69.685 123.500 C 70.218 122.950, 72.837 119.350, 75.505 115.500 C 78.174 111.650, 84.410 104.338, 89.363 99.250 C 94.316 94.162, 98.839 90, 99.414 90 C 99.990 90, 96.376 94.162, 91.384 99.250 C 86.393 104.338, 80.314 111.200, 77.876 114.500 C 75.438 117.800, 72.122 122.750, 70.507 125.500 C 68.892 128.250, 66.282 133.200, 64.708 136.500 C 63.133 139.800, 60.571 146.325, 59.015 151 C 57.459 155.675, 55.668 161.975, 55.036 165 C 54.404 168.025, 53.462 172.419, 52.943 174.764 C 52.424 177.110, 52 185.316, 52 193 C 52 200.684, 52.432 208.890, 52.959 211.236 C 53.487 213.581, 54.443 218.200, 55.084 221.500 C 55.725 224.800, 57.150 230.200, 58.251 233.500 C 59.352 236.800, 61.861 243.100, 63.827 247.500 C 65.793 251.900, 69.077 258.302, 71.125 261.728 C 73.173 265.153, 77.011 270.778, 79.654 274.228 C 82.297 277.677, 87.457 283.498, 91.121 287.163 C 94.786 290.828, 101.095 296.263, 105.142 299.241 C 109.189 302.220, 115.200 306.217, 118.500 308.124 C 121.800 310.032, 126.525 312.529, 129 313.674 C 131.475 314.819, 137.699 317.194, 142.832 318.951 C 147.964 320.709, 154.489 322.595, 157.332 323.144 C 160.174 323.693, 165.425 324.518, 169 324.978 C 172.575 325.439, 182.086 325.665, 190.135 325.482 C 198.185 325.299, 206.648 324.587, 208.942 323.899 C 211.370 323.172, 213.926 321.509, 215.057 319.920 C 216.126 318.419, 217 315.898, 217 314.318 C 217 312.738, 216.298 310.442, 215.439 309.217 C 214.581 307.991, 212.518 306.285, 210.856 305.426 C 208.479 304.196, 207.178 304.091, 204.767 304.931 C 203.081 305.519, 200.445 306, 198.910 306 C 197.374 306, 195.776 305.446, 195.357 304.769 C 194.939 304.092, 194.546 298.354, 194.485 292.019 C 194.424 285.683, 194.058 279.560, 193.671 278.410 C 193.284 277.261, 191.826 275.710, 190.432 274.963 C 189.037 274.217, 186.245 273.653, 184.226 273.711 C 181.578 273.786, 179.922 274.552, 178.278 276.463 C 176.187 278.894, 176 280.075, 176 290.865 C 176 299.244, 175.606 303.156, 174.628 304.494 C 173.341 306.254, 172.803 306.287, 165.878 305.029 C 161.820 304.291, 154 302.235, 148.500 300.459 C 143 298.682, 134.450 294.902, 129.500 292.058 C 124.550 289.215, 119.633 286.243, 118.573 285.454 C 117.513 284.666, 116.921 283.746, 117.257 283.409 C 117.594 283.073, 119.361 283.902, 121.184 285.251 C 123.008 286.601, 125.175 288.062, 126 288.499 C 126.991 289.024, 127.161 288.958, 126.500 288.306 C 125.950 287.762, 122.051 284.760, 117.835 281.634 C 113.619 278.508, 107.631 273.208, 104.527 269.856 C 101.424 266.504, 97.057 261.340, 94.822 258.381 C 92.588 255.421, 90.561 253, 90.318 253 C 90.075 253, 91.366 255.137, 93.188 257.750 C 95.010 260.363, 101.065 267.113, 106.645 272.750 C 112.225 278.387, 116.322 283, 115.749 283 C 115.176 283, 110.356 278.613, 105.038 273.250 C 99.720 267.887, 93.307 260.350, 90.787 256.500 C 88.267 252.650, 85.298 247.700, 84.188 245.500 C 83.079 243.300, 81.290 239.475, 80.213 237 C 79.136 234.525, 77.569 230.250, 76.730 227.500 C 75.892 224.750, 74.731 220.475, 74.151 218 C 73.571 215.525, 72.822 211.358, 72.486 208.741 C 71.938 204.475, 72.101 203.898, 74.062 203.173 C 75.265 202.728, 80.355 202.469, 85.374 202.598 C 90.393 202.726, 96.084 202.430, 98.021 201.939 C 100.286 201.365, 102.158 200.002, 103.271 198.119 C 104.222 196.509, 105 194.123, 105 192.818 C 105 191.513, 104.302 189.448, 103.449 188.230 C 102.596 187.012, 100.908 185.449, 99.699 184.758 C 98.417 184.024, 92.288 183.292, 85 183 L 72.500 182.500 72.713 179 C 72.830 177.075, 73.462 172.350, 74.117 168.500 C 74.772 164.650, 75.688 161.072, 76.154 160.550 C 76.619 160.027, 77.002 158.902, 77.005 158.050 C 77.008 157.197, 78.940 152.225, 81.299 147 C 83.659 141.775, 87.941 134.019, 90.815 129.764 C 93.690 125.510, 98.784 119.097, 102.135 115.514 C 105.487 111.931, 108.725 109, 109.330 109 C 109.936 109, 108.186 111.362, 105.441 114.250 C 102.695 117.138, 99.561 120.661, 98.475 122.081 C 97.389 123.500, 99.730 121.267, 103.677 117.118 C 107.625 112.969, 110.664 109.265, 110.431 108.888 C 110.197 108.510, 111.565 106.833, 113.470 105.161 C 115.374 103.489, 119.535 100.379, 122.716 98.251 C 125.897 96.122, 130.975 93.206, 134 91.771 C 137.025 90.335, 142.287 88.041, 145.694 86.673 C 149.100 85.305, 154.950 83.502, 158.694 82.667 C 162.437 81.831, 167.162 80.895, 169.193 80.588 C 171.853 80.185, 173.345 80.488, 174.526 81.669 C 175.716 82.859, 176.111 84.846, 175.964 88.905 C 175.852 91.982, 175.815 97.347, 175.881 100.827 C 175.986 106.405, 176.346 107.500, 178.923 110.077 C 181.021 112.175, 182.817 113, 185.287 113 C 187.671 113, 189.537 112.190, 191.364 110.364 C 192.814 108.914, 194.053 107.451, 194.118 107.114 C 194.182 106.776, 194.322 100.998, 194.427 94.273 C 194.533 87.549, 194.935 81.732, 195.320 81.346 C 195.706 80.961, 197.929 80.680, 200.260 80.721 C 202.592 80.763, 207.425 81.544, 211 82.457 C 214.575 83.371, 220.200 85.041, 223.500 86.170 C 226.800 87.300, 233.367 90.241, 238.094 92.706 C 242.820 95.172, 249.584 99.359, 253.125 102.011 C 256.666 104.663, 263.262 110.684, 267.782 115.393 C 272.302 120.101, 276 124.417, 276 124.984 C 276 125.551, 271.446 121.399, 265.879 115.758 L 255.759 105.500 265.541 116 C 270.921 121.775, 275.682 126.394, 276.121 126.264 C 276.560 126.133, 278.020 127.483, 279.367 129.264 C 280.713 131.044, 283.785 136.325, 286.194 141 C 288.602 145.675, 291.136 151.154, 291.824 153.175 C 292.512 155.197, 292.827 158.122, 292.522 159.675 C 292.083 161.919, 292.156 162.088, 292.877 160.500 C 293.603 158.901, 293.891 158.801, 294.312 160 C 294.601 160.825, 295.116 162.850, 295.457 164.500 C 295.797 166.150, 296.640 170.482, 297.329 174.127 C 298.018 177.771, 298.414 181.259, 298.208 181.877 C 297.959 182.624, 293.831 183, 285.867 183 C 276.961 183, 273.126 183.401, 270.872 184.566 C 269.206 185.428, 267.244 187.566, 266.512 189.317 C 265.780 191.068, 265.412 193.702, 265.692 195.171 C 265.973 196.640, 267.279 198.853, 268.595 200.089 C 270.783 202.145, 272.109 202.362, 284.170 202.645 C 293.475 202.863, 297.589 203.328, 298.154 204.227 C 298.594 204.927, 298.716 206.267, 298.424 207.205 C 298.132 208.143, 297.446 211.293, 296.898 214.205 C 296.350 217.117, 295.653 221.980, 295.348 225.011 C 294.842 230.051, 295.028 230.755, 297.533 233.261 C 299.672 235.400, 301.218 236, 304.585 236 C 308.286 236, 309.244 235.538, 311.330 232.750 C 312.667 230.963, 314.020 228.150, 314.336 226.500 C 314.652 224.850, 315.437 221.250, 316.080 218.500 C 316.724 215.750, 317.456 205.400, 317.708 195.500 C 318.001 183.942, 317.751 175.532, 317.008 172 C 316.371 168.975, 315.403 164.700, 314.856 162.500 C 314.308 160.300, 312.944 155.575, 311.823 152 C 310.703 148.425, 308.239 142.130, 306.348 138.012 C 304.457 133.893, 300.804 127.143, 298.230 123.012 C 295.655 118.880, 291.082 112.575, 288.067 109 C 285.051 105.425, 280.849 100.766, 278.728 98.648 C 276.607 96.529, 275.123 94.544, 275.430 94.237 C 275.737 93.930, 276.958 94.539, 278.145 95.589 C 279.331 96.640, 283.596 101.440, 287.623 106.254 C 291.650 111.069, 296.605 117.594, 298.636 120.754 C 300.666 123.915, 304.304 130.550, 306.719 135.500 C 309.135 140.450, 310.803 143.375, 310.425 142 C 310.047 140.625, 308.178 136.386, 306.271 132.581 C 304.364 128.775, 301.629 123.825, 300.192 121.581 C 298.755 119.336, 294.740 113.807, 291.269 109.294 C 287.799 104.781, 281.012 97.548, 276.186 93.221 C 271.361 88.895, 264.732 83.538, 261.456 81.318 C 258.180 79.098, 253.588 76.309, 251.250 75.120 C 248.912 73.932, 247 73.151, 247 73.384 C 247 73.618, 249.588 75.252, 252.750 77.016 C 255.912 78.780, 261.799 82.687, 265.832 85.697 C 269.864 88.707, 272.943 91.391, 272.673 91.660 C 272.404 91.930, 268.880 89.727, 264.842 86.766 C 260.804 83.805, 254.350 79.609, 250.500 77.441 C 246.650 75.273, 242.262 72.937, 240.750 72.250 C 239.238 71.562, 236.875 70.550, 235.500 70 C 234.125 69.450, 231.988 68.595, 230.750 68.100 C 229.512 67.605, 226.025 66.492, 223 65.626 C 219.975 64.761, 216.150 63.826, 214.500 63.549 C 212.850 63.272, 210.375 62.803, 209 62.506 C 207.625 62.209, 204.250 61.697, 201.500 61.368 C 198.750 61.040, 192 60.560, 186.500 60.302 C 181 60.044, 176.249 60.084, 175.942 60.391 M 231 66.500 C 231 66.775, 231.225 67, 231.500 67 C 231.775 67, 232 66.775, 232 66.500 C 232 66.225, 231.775 66, 231.500 66 C 231.225 66, 231 66.225, 231 66.500 M 233.333 67.667 C 233.700 68.033, 234.300 68.033, 234.667 67.667 C 235.033 67.300, 234.733 67, 234 67 C 233.267 67, 232.967 67.300, 233.333 67.667 M 239 70 C 240.925 71.054, 242.950 71.916, 243.500 71.916 C 244.050 71.916, 242.925 71.054, 241 70 C 239.075 68.946, 237.050 68.084, 236.500 68.084 C 235.950 68.084, 237.075 68.946, 239 70 M 131 69.500 C 131 69.775, 131.225 70, 131.500 70 C 131.775 70, 132 69.775, 132 69.500 C 132 69.225, 131.775 69, 131.500 69 C 131.225 69, 131 69.225, 131 69.500 M 129 70.500 C 129 70.775, 129.225 71, 129.500 71 C 129.775 71, 130 70.775, 130 70.500 C 130 70.225, 129.775 70, 129.500 70 C 129.225 70, 129 70.225, 129 70.500 M 127 71.500 C 127 71.775, 127.225 72, 127.500 72 C 127.775 72, 128 71.775, 128 71.500 C 128 71.225, 127.775 71, 127.500 71 C 127.225 71, 127 71.225, 127 71.500 M 245 72.500 C 245 72.775, 245.225 73, 245.500 73 C 245.775 73, 246 72.775, 246 72.500 C 246 72.225, 245.775 72, 245.500 72 C 245.225 72, 245 72.225, 245 72.500 M 161.113 83.545 C 157.600 84.307, 152.508 85.667, 149.798 86.567 C 147.088 87.467, 145.056 88.389, 145.283 88.616 C 145.510 88.843, 148.577 88.153, 152.098 87.082 C 155.619 86.012, 161.170 84.655, 164.434 84.068 C 167.697 83.481, 170.960 83, 171.684 83 C 172.693 83, 173 85.588, 173 94.099 C 173 101.892, 173.447 106.139, 174.500 108.358 C 175.325 110.096, 177.012 112.133, 178.250 112.884 C 179.996 113.944, 179.828 113.536, 177.500 111.062 C 174.530 107.907, 174.497 107.744, 174.171 94.937 L 173.841 82 170.671 82.079 C 168.927 82.123, 164.626 82.783, 161.113 83.545 M 195.830 95.264 C 195.546 106.916, 195.233 109.091, 193.581 110.913 C 192.526 112.078, 190.276 113.433, 188.581 113.925 C 186.126 114.638, 185.954 114.838, 187.734 114.910 C 188.963 114.959, 191.438 113.688, 193.234 112.085 L 196.500 109.169 196.832 95.979 L 197.163 82.790 202.636 83.474 C 205.646 83.850, 211.291 85.040, 215.182 86.118 C 219.072 87.196, 222.430 87.903, 222.644 87.689 C 222.858 87.476, 219.763 86.334, 215.766 85.153 C 211.770 83.971, 205.723 82.718, 202.330 82.368 L 196.160 81.732 195.830 95.264 M 224.333 88.667 C 224.700 89.033, 225.300 89.033, 225.667 88.667 C 226.033 88.300, 225.733 88, 225 88 C 224.267 88, 223.967 88.300, 224.333 88.667 M 141 90 C 140.175 90.533, 139.950 90.969, 140.500 90.969 C 141.050 90.969, 142.175 90.533, 143 90 C 143.825 89.467, 144.050 89.031, 143.500 89.031 C 142.950 89.031, 141.825 89.467, 141 90 M 227 89.500 C 227 89.775, 227.225 90, 227.500 90 C 227.775 90, 228 89.775, 228 89.500 C 228 89.225, 227.775 89, 227.500 89 C 227.225 89, 227 89.225, 227 89.500 M 229 90.500 C 229 90.775, 229.225 91, 229.500 91 C 229.775 91, 230 90.775, 230 90.500 C 230 90.225, 229.775 90, 229.500 90 C 229.225 90, 229 90.225, 229 90.500 M 138 91.500 C 138 91.775, 138.225 92, 138.500 92 C 138.775 92, 139 91.775, 139 91.500 C 139 91.225, 138.775 91, 138.500 91 C 138.225 91, 138 91.225, 138 91.500 M 231.083 91.380 C 231.313 91.589, 233.863 92.946, 236.750 94.397 C 239.637 95.847, 242 96.809, 242 96.534 C 242 96.259, 239.765 94.901, 237.033 93.517 C 234.302 92.133, 231.752 91, 231.367 91 C 230.982 91, 230.854 91.171, 231.083 91.380 M 136 92.500 C 136 92.775, 136.225 93, 136.500 93 C 136.775 93, 137 92.775, 137 92.500 C 137 92.225, 136.775 92, 136.500 92 C 136.225 92, 136 92.225, 136 92.500 M 273 93 C 273 93.550, 273.477 94, 274.059 94 C 274.641 94, 274.840 93.550, 274.500 93 C 274.160 92.450, 273.684 92, 273.441 92 C 273.198 92, 273 92.450, 273 93 M 126.979 97.418 C 122.866 99.848, 117.925 103.214, 116 104.897 C 114.075 106.581, 116.811 105.155, 122.080 101.729 C 127.348 98.303, 132.523 94.964, 133.580 94.309 C 134.636 93.654, 135.266 93.091, 134.979 93.059 C 134.693 93.026, 131.093 94.988, 126.979 97.418 M 243 97.406 C 243 97.692, 245.813 99.769, 249.250 102.023 C 253.596 104.873, 254.533 105.265, 252.326 103.311 C 250.580 101.765, 247.768 99.687, 246.076 98.693 C 244.384 97.700, 243 97.121, 243 97.406 M 181.750 114.662 C 182.438 114.940, 183.563 114.940, 184.250 114.662 C 184.938 114.385, 184.375 114.158, 183 114.158 C 181.625 114.158, 181.063 114.385, 181.750 114.662 M 63.026 135.250 C 60.335 140.887, 57.876 146.625, 57.561 148 L 56.989 150.500 58.149 148 C 58.787 146.625, 61.462 140.887, 64.093 135.250 C 66.724 129.613, 68.662 125, 68.398 125 C 68.135 125, 65.717 129.613, 63.026 135.250 M 93.872 127.750 C 92.629 129.336, 92.664 129.371, 94.250 128.128 C 95.213 127.373, 96 126.585, 96 126.378 C 96 126.170, 95.830 126, 95.622 126 C 95.415 126, 94.627 126.787, 93.872 127.750 M 277.272 129.581 C 277.696 130.228, 280.282 134.749, 283.019 139.628 C 285.756 144.508, 287.996 148.105, 287.998 147.623 C 287.999 147.141, 286.187 143.463, 283.972 139.449 C 281.757 135.436, 279.169 131.310, 278.222 130.279 C 277.275 129.249, 276.847 128.935, 277.272 129.581 M 91.405 131.155 C 90.962 131.870, 91.130 132.038, 91.845 131.595 C 92.480 131.203, 93 130.684, 93 130.441 C 93 130.198, 92.802 130, 92.559 130 C 92.316 130, 91.797 130.520, 91.405 131.155 M 87.169 138.250 C 85.531 141.137, 82.996 146.361, 81.537 149.858 C 80.077 153.355, 79.094 156.427, 79.350 156.684 C 79.607 156.941, 80.134 156.104, 80.521 154.825 C 80.908 153.546, 83.404 148.113, 86.067 142.750 C 88.730 137.387, 90.738 133, 90.528 133 C 90.318 133, 88.807 135.363, 87.169 138.250 M 311 145.500 C 311 145.775, 311.225 146, 311.500 146 C 311.775 146, 312 145.775, 312 145.500 C 312 145.225, 311.775 145, 311.500 145 C 311.225 145, 311 145.225, 311 145.500 M 180 148.790 C 178.075 149.824, 175.699 152.206, 174.721 154.085 C 173.156 157.089, 172.976 159.937, 173.221 177.730 L 173.500 197.959 176.381 200.730 L 179.262 203.500 176.881 200.166 C 174.556 196.911, 174.500 196.344, 174.500 175.997 C 174.500 155.387, 174.526 155.133, 176.897 152.610 C 178.215 151.206, 180.786 149.566, 182.609 148.964 C 185.292 148.079, 186.605 148.193, 189.497 149.565 C 191.461 150.498, 193.616 152.215, 194.285 153.380 C 194.980 154.593, 195.714 161.065, 196 168.500 L 196.500 181.500 208.500 181.552 L 220.500 181.604 208.750 181.270 L 197 180.937 196.985 168.718 C 196.976 161.013, 196.514 155.612, 195.735 154.096 C 195.056 152.774, 193.375 150.867, 192 149.858 C 190.625 148.849, 188.150 147.773, 186.500 147.466 C 184.562 147.107, 182.261 147.575, 180 148.790 M 312 148 C 312 148.733, 312.300 149.033, 312.667 148.667 C 313.033 148.300, 313.033 147.700, 312.667 147.333 C 312.300 146.967, 312 147.267, 312 148 M 288.031 149.500 C 288.031 150.050, 288.467 151.175, 289 152 C 289.533 152.825, 289.969 153.050, 289.969 152.500 C 289.969 151.950, 289.533 150.825, 289 150 C 288.467 149.175, 288.031 148.950, 288.031 149.500 M 178.923 152.923 L 176 155.846 175.858 170.173 C 175.779 178.053, 175.734 185.625, 175.757 187 C 175.780 188.375, 175.844 191.162, 175.899 193.194 C 175.963 195.533, 176.873 197.904, 178.380 199.655 L 180.760 202.423 200.847 202.496 C 211.895 202.536, 221.846 202.231, 222.961 201.819 C 224.075 201.406, 225.815 199.708, 226.827 198.044 C 227.839 196.380, 228.555 194.002, 228.417 192.759 C 228.279 191.517, 228.129 190.231, 228.083 189.903 C 228.037 189.575, 227.175 188.354, 226.166 187.191 C 225.157 186.028, 223.238 184.661, 221.900 184.152 C 220.563 183.644, 214.303 183.157, 207.991 183.071 C 201.678 182.984, 196.098 182.498, 195.589 181.989 C 195.081 181.481, 194.612 175.538, 194.548 168.783 C 194.463 159.937, 194.026 155.875, 192.986 154.268 C 192.191 153.040, 190.227 151.578, 188.621 151.018 C 187.015 150.458, 184.834 150, 183.774 150 C 182.714 150, 180.531 151.315, 178.923 152.923 M 313 151 C 313 151.733, 313.300 152.033, 313.667 151.667 C 314.033 151.300, 314.033 150.700, 313.667 150.333 C 313.300 149.967, 313 150.267, 313 151 M 56.079 152.583 C 56.127 153.748, 56.364 153.985, 56.683 153.188 C 56.972 152.466, 56.936 151.603, 56.604 151.271 C 56.272 150.939, 56.036 151.529, 56.079 152.583 M 314 154 C 314 154.733, 314.300 155.033, 314.667 154.667 C 315.033 154.300, 315.033 153.700, 314.667 153.333 C 314.300 152.967, 314 153.267, 314 154 M 290.031 154.500 C 290.031 155.050, 290.467 156.175, 291 157 C 291.533 157.825, 291.969 158.050, 291.969 157.500 C 291.969 156.950, 291.533 155.825, 291 155 C 290.467 154.175, 290.031 153.950, 290.031 154.500 M 55 156 C 55 156.733, 55.300 157.033, 55.667 156.667 C 56.033 156.300, 56.033 155.700, 55.667 155.333 C 55.300 154.967, 55 155.267, 55 156 M 315.170 157 C 315.186 157.825, 315.560 159.625, 316 161 C 316.644 163.010, 316.806 163.108, 316.830 161.500 C 316.846 160.400, 316.473 158.600, 316 157.500 C 315.473 156.275, 315.152 156.081, 315.170 157 M 54.079 159.583 C 54.127 160.748, 54.364 160.985, 54.683 160.188 C 54.972 159.466, 54.936 158.603, 54.604 158.271 C 54.272 157.939, 54.036 158.529, 54.079 159.583 M 78 159 C 78 159.733, 78.300 160.033, 78.667 159.667 C 79.033 159.300, 79.033 158.700, 78.667 158.333 C 78.300 157.967, 78 158.267, 78 159 M 76.500 164 C 76.120 165.729, 76.018 167.351, 76.273 167.606 C 76.528 167.861, 77.024 166.632, 77.375 164.875 C 77.726 163.118, 77.829 161.495, 77.602 161.269 C 77.376 161.042, 76.880 162.271, 76.500 164 M 53.079 163.583 C 53.127 164.748, 53.364 164.985, 53.683 164.188 C 53.972 163.466, 53.936 162.603, 53.604 162.271 C 53.272 161.939, 53.036 162.529, 53.079 163.583 M 293 164 C 293 164.733, 293.300 165.033, 293.667 164.667 C 294.033 164.300, 294.033 163.700, 293.667 163.333 C 293.300 162.967, 293 163.267, 293 164 M 317.158 166 C 317.158 167.375, 317.385 167.938, 317.662 167.250 C 317.940 166.563, 317.940 165.438, 317.662 164.750 C 317.385 164.063, 317.158 164.625, 317.158 166 M 52.079 168.583 C 52.127 169.748, 52.364 169.985, 52.683 169.188 C 52.972 168.466, 52.936 167.603, 52.604 167.271 C 52.272 166.939, 52.036 167.529, 52.079 168.583 M 294 168 C 294 168.733, 294.300 169.033, 294.667 168.667 C 295.033 168.300, 295.033 167.700, 294.667 167.333 C 294.300 166.967, 294 167.267, 294 168 M 75.079 170.583 C 75.127 171.748, 75.364 171.985, 75.683 171.188 C 75.972 170.466, 75.936 169.603, 75.604 169.271 C 75.272 168.939, 75.036 169.529, 75.079 170.583 M 318.079 170.583 C 318.127 171.748, 318.364 171.985, 318.683 171.188 C 318.972 170.466, 318.936 169.603, 318.604 169.271 C 318.272 168.939, 318.036 169.529, 318.079 170.583 M 295.079 172.583 C 295.127 173.748, 295.364 173.985, 295.683 173.188 C 295.972 172.466, 295.936 171.603, 295.604 171.271 C 295.272 170.939, 295.036 171.529, 295.079 172.583 M 51.158 174 C 51.158 175.375, 51.385 175.938, 51.662 175.250 C 51.940 174.563, 51.940 173.438, 51.662 172.750 C 51.385 172.063, 51.158 172.625, 51.158 174 M 74 175 C 74 175.733, 74.300 176.033, 74.667 175.667 C 75.033 175.300, 75.033 174.700, 74.667 174.333 C 74.300 173.967, 74 174.267, 74 175 M 319.500 193.500 C 319.500 204.076, 319.794 210.283, 320.162 207.500 C 320.527 204.750, 320.831 198.225, 320.838 193 C 320.846 187.775, 320.548 181.475, 320.176 179 C 319.804 176.525, 319.500 183.050, 319.500 193.500 M 296 178.467 C 296 180.925, 295.957 180.936, 284.750 181.253 L 273.500 181.572 285.250 181.786 L 297 182 297 179 C 297 177.350, 296.775 176, 296.500 176 C 296.225 176, 296 177.110, 296 178.467 M 50.286 183.500 C 50.294 186.250, 50.488 187.256, 50.718 185.736 C 50.947 184.216, 50.941 181.966, 50.704 180.736 C 50.467 179.506, 50.279 180.750, 50.286 183.500 M 73.882 181.286 C 74.316 181.718, 79.583 181.940, 85.586 181.780 L 96.500 181.490 84.796 180.995 C 78.359 180.723, 73.447 180.853, 73.882 181.286 M 98.333 182.667 C 98.700 183.033, 99.300 183.033, 99.667 182.667 C 100.033 182.300, 99.733 182, 99 182 C 98.267 182, 97.967 182.300, 98.333 182.667 M 224.580 183.885 C 226.274 184.918, 228.238 187.159, 228.944 188.865 C 229.685 190.653, 229.962 193.388, 229.599 195.323 C 229.253 197.170, 227.816 199.765, 226.407 201.090 C 223.908 203.440, 223.315 203.513, 202.672 204.039 L 181.500 204.578 202.265 204.789 L 223.029 205 226.765 201.577 C 230.153 198.471, 230.500 197.675, 230.500 192.995 C 230.500 188.432, 230.123 187.499, 227.234 184.918 C 225.438 183.313, 223.413 182.002, 222.734 182.004 C 222.055 182.006, 222.886 182.853, 224.580 183.885 M 268.217 183.561 C 266.991 184.419, 265.316 186.422, 264.494 188.011 C 263.672 189.600, 263 192.326, 263 194.068 C 263 196.414, 264.007 198.242, 266.882 201.118 L 270.765 205 283.316 205 C 295.543 205, 295.878 205.058, 296.280 207.250 C 296.639 209.208, 296.680 209.175, 296.596 207 L 296.500 204.500 283.399 204 C 274.127 203.646, 269.796 203.083, 268.583 202.073 C 267.640 201.288, 266.223 199.398, 265.434 197.872 C 264.645 196.347, 264 194.155, 264 193 C 264 191.845, 264.681 189.584, 265.513 187.976 C 266.344 186.367, 268.257 184.382, 269.763 183.565 C 271.268 182.748, 272.038 182.062, 271.473 182.040 C 270.907 182.018, 269.442 182.702, 268.217 183.561 M 103.386 185.827 C 105.204 188.140, 106 190.359, 106 193.112 C 106 195.289, 105.298 198.142, 104.440 199.451 C 103.582 200.761, 102.120 202.195, 101.190 202.639 C 100.261 203.082, 93.650 203.708, 86.500 204.030 L 73.500 204.614 85.800 204.807 C 95.059 204.952, 98.814 204.631, 100.989 203.506 C 102.578 202.684, 104.581 201.009, 105.439 199.783 C 106.298 198.558, 107 195.637, 107 193.293 C 107 189.889, 106.373 188.374, 103.886 185.766 L 100.773 182.500 103.386 185.827 M 50 189.500 C 50 189.775, 50.225 190, 50.500 190 C 50.775 190, 51 189.775, 51 189.500 C 51 189.225, 50.775 189, 50.500 189 C 50.225 189, 50 189.225, 50 189.500 M 50 197.500 C 50 197.775, 50.225 198, 50.500 198 C 50.775 198, 51 197.775, 51 197.500 C 51 197.225, 50.775 197, 50.500 197 C 50.225 197, 50 197.225, 50 197.500 M 50.272 203 C 50.272 205.475, 50.467 206.488, 50.706 205.250 C 50.944 204.012, 50.944 201.988, 50.706 200.750 C 50.467 199.512, 50.272 200.525, 50.272 203 M 180 203.500 C 180 203.775, 180.225 204, 180.500 204 C 180.775 204, 181 203.775, 181 203.500 C 181 203.225, 180.775 203, 180.500 203 C 180.225 203, 180 203.225, 180 203.500 M 51.158 212 C 51.158 213.375, 51.385 213.938, 51.662 213.250 C 51.940 212.563, 51.940 211.438, 51.662 210.750 C 51.385 210.063, 51.158 210.625, 51.158 212 M 74.079 211.583 C 74.127 212.748, 74.364 212.985, 74.683 212.188 C 74.972 211.466, 74.936 210.603, 74.604 210.271 C 74.272 209.939, 74.036 210.529, 74.079 211.583 M 295 214 C 295 214.733, 295.300 215.033, 295.667 214.667 C 296.033 214.300, 296.033 213.700, 295.667 213.333 C 295.300 212.967, 295 213.267, 295 214 M 318.079 215.583 C 318.127 216.748, 318.364 216.985, 318.683 216.188 C 318.972 215.466, 318.936 214.603, 318.604 214.271 C 318.272 213.939, 318.036 214.529, 318.079 215.583 M 75 216 C 75 216.733, 75.300 217.033, 75.667 216.667 C 76.033 216.300, 76.033 215.700, 75.667 215.333 C 75.300 214.967, 75 215.267, 75 216 M 52.158 218 C 52.158 219.375, 52.385 219.938, 52.662 219.250 C 52.940 218.563, 52.940 217.438, 52.662 216.750 C 52.385 216.063, 52.158 216.625, 52.158 218 M 294 218 C 294 218.733, 294.300 219.033, 294.667 218.667 C 295.033 218.300, 295.033 217.700, 294.667 217.333 C 294.300 216.967, 294 217.267, 294 218 M 317.158 220 C 317.158 221.375, 317.385 221.938, 317.662 221.250 C 317.940 220.563, 317.940 219.438, 317.662 218.750 C 317.385 218.063, 317.158 218.625, 317.158 220 M 76.079 220.583 C 76.127 221.748, 76.364 221.985, 76.683 221.188 C 76.972 220.466, 76.936 219.603, 76.604 219.271 C 76.272 218.939, 76.036 219.529, 76.079 220.583 M 53.158 223 C 53.158 224.375, 53.385 224.938, 53.662 224.250 C 53.940 223.563, 53.940 222.438, 53.662 221.750 C 53.385 221.063, 53.158 221.625, 53.158 223 M 293.079 222.583 C 293.127 223.748, 293.364 223.985, 293.683 223.188 C 293.972 222.466, 293.936 221.603, 293.604 221.271 C 293.272 220.939, 293.036 221.529, 293.079 222.583 M 77 224 C 77 224.733, 77.300 225.033, 77.667 224.667 C 78.033 224.300, 78.033 223.700, 77.667 223.333 C 77.300 222.967, 77 223.267, 77 224 M 316.079 225.583 C 316.127 226.748, 316.364 226.985, 316.683 226.188 C 316.972 225.466, 316.936 224.603, 316.604 224.271 C 316.272 223.939, 316.036 224.529, 316.079 225.583 M 292.158 227 C 292.158 228.375, 292.385 228.938, 292.662 228.250 C 292.940 227.563, 292.940 226.438, 292.662 225.750 C 292.385 225.063, 292.158 225.625, 292.158 227 M 54 227 C 54 227.733, 54.300 228.033, 54.667 227.667 C 55.033 227.300, 55.033 226.700, 54.667 226.333 C 54.300 225.967, 54 226.267, 54 227 M 78 227 C 78 227.733, 78.300 228.033, 78.667 227.667 C 79.033 227.300, 79.033 226.700, 78.667 226.333 C 78.300 225.967, 78 226.267, 78 227 M 315 229 C 315 229.733, 315.300 230.033, 315.667 229.667 C 316.033 229.300, 316.033 228.700, 315.667 228.333 C 315.300 227.967, 315 228.267, 315 229 M 55 230 C 55 230.733, 55.300 231.033, 55.667 230.667 C 56.033 230.300, 56.033 229.700, 55.667 229.333 C 55.300 228.967, 55 229.267, 55 230 M 79 230 C 79 230.733, 79.300 231.033, 79.667 230.667 C 80.033 230.300, 80.033 229.700, 79.667 229.333 C 79.300 228.967, 79 229.267, 79 230 M 293 230.941 C 293 231.459, 293.445 232.157, 293.989 232.493 C 294.555 232.843, 294.723 232.442, 294.382 231.552 C 294.054 230.698, 293.609 230, 293.393 230 C 293.177 230, 293 230.423, 293 230.941 M 314 231.500 C 314 231.775, 314.225 232, 314.500 232 C 314.775 232, 315 231.775, 315 231.500 C 315 231.225, 314.775 231, 314.500 231 C 314.225 231, 314 231.225, 314 231.500 M 56.079 233.583 C 56.127 234.748, 56.364 234.985, 56.683 234.188 C 56.972 233.466, 56.936 232.603, 56.604 232.271 C 56.272 231.939, 56.036 232.529, 56.079 233.583 M 80.535 234 C 80.918 235.375, 83.038 240.004, 85.246 244.286 C 87.454 248.569, 89.387 251.944, 89.540 251.786 C 89.694 251.629, 87.574 247, 84.830 241.500 C 82.085 236, 80.153 232.625, 80.535 234 M 311.405 235.250 L 309.500 237.500 311.750 235.595 C 312.988 234.547, 314 233.535, 314 233.345 C 314 233.155, 313.845 233, 313.655 233 C 313.465 233, 312.453 234.012, 311.405 235.250 M 297.441 236.445 C 298.509 237.300, 299.821 238, 300.358 238 C 300.894 238, 301.146 237.836, 300.917 237.635 C 300.688 237.435, 299.375 236.735, 298 236.080 C 295.643 234.958, 295.611 234.978, 297.441 236.445 M 57.016 236.560 C 57.007 237.144, 58.087 240.394, 59.415 243.784 C 60.744 247.173, 63.694 253.323, 65.972 257.450 C 68.250 261.576, 70.544 265.218, 71.071 265.544 C 71.597 265.869, 70.609 263.742, 68.874 260.818 C 67.140 257.893, 63.766 251, 61.377 245.500 C 58.987 240, 57.025 235.977, 57.016 236.560 M 307.333 237.667 C 307.700 238.033, 308.300 238.033, 308.667 237.667 C 309.033 237.300, 308.733 237, 308 237 C 307.267 237, 306.967 237.300, 307.333 237.667 M 302.750 238.662 C 303.438 238.940, 304.563 238.940, 305.250 238.662 C 305.938 238.385, 305.375 238.158, 304 238.158 C 302.625 238.158, 302.063 238.385, 302.750 238.662 M 257.500 242.819 C 254.750 243.844, 251.150 245.419, 249.500 246.321 C 247.850 247.222, 245.825 248.550, 245 249.271 C 244.175 249.992, 241.925 252.360, 240 254.532 C 237.546 257.300, 237.322 257.759, 239.250 256.066 C 240.762 254.738, 242 254.125, 242 254.703 C 242 255.282, 241.303 256.334, 240.450 257.041 C 239.598 257.748, 237.957 260.391, 236.802 262.914 C 235.648 265.436, 234.101 269.750, 233.364 272.500 C 232.627 275.250, 232.025 280.875, 232.027 285 C 232.029 289.125, 232.924 296.100, 234.016 300.500 C 235.108 304.900, 236.396 309.400, 236.879 310.500 C 237.361 311.600, 239.228 315.539, 241.029 319.254 C 242.830 322.968, 247.272 329.703, 250.901 334.220 C 254.531 338.737, 261.550 345.937, 266.500 350.221 C 271.450 354.504, 275.402 358.414, 275.282 358.908 C 275.162 359.403, 275.837 360.414, 276.782 361.154 C 278.332 362.368, 278.366 362.329, 277.128 360.750 C 276.373 359.788, 276.040 359, 276.387 359 C 276.735 359, 280.728 361.465, 285.260 364.479 C 289.792 367.492, 294.852 370.226, 296.505 370.555 C 298.979 371.047, 300.923 370.234, 307.505 365.958 C 311.902 363.101, 318.650 358.284, 322.500 355.253 C 326.350 352.222, 333.292 345.863, 337.927 341.121 C 342.563 336.379, 348.044 329.891, 350.109 326.702 C 352.173 323.513, 355.111 317.663, 356.638 313.702 C 358.165 309.741, 359.514 306.050, 359.638 305.500 C 359.761 304.950, 360.568 301.891, 361.431 298.701 C 362.294 295.512, 363 289.181, 363 284.633 C 363 279.945, 362.302 274.010, 361.390 270.932 C 360.504 267.944, 358.962 263.925, 357.963 262 C 356.965 260.075, 354.759 257.004, 353.061 255.175 C 351.364 253.346, 350.201 251.484, 350.477 251.038 C 350.752 250.592, 350.195 249.613, 349.239 248.863 C 347.634 247.605, 347.615 247.647, 349 249.413 C 349.825 250.465, 350.050 251.137, 349.500 250.907 C 348.950 250.677, 346.141 249.248, 343.257 247.731 C 340.373 246.214, 337.673 244.960, 337.257 244.943 C 336.841 244.926, 335.600 244.702, 334.500 244.445 C 333.400 244.188, 330.664 243.814, 328.419 243.614 C 326.174 243.414, 321.893 243.633, 318.904 244.102 C 315.915 244.571, 311.226 246.088, 308.485 247.474 C 305.743 248.860, 302.246 250.995, 300.714 252.219 C 298.420 254.051, 297.625 254.230, 296.214 253.228 C 295.271 252.559, 292.250 250.656, 289.500 249 C 286.750 247.343, 282.700 245.475, 280.500 244.848 C 278.300 244.221, 273.350 243.720, 269.500 243.734 C 265.650 243.748, 260.620 244.272, 258.322 244.899 C 256.024 245.525, 251.799 247.617, 248.932 249.546 C 246.065 251.475, 243.528 252.862, 243.294 252.628 C 243.060 252.394, 244.361 251.064, 246.185 249.672 C 248.010 248.281, 251.752 246.128, 254.501 244.888 C 258.567 243.055, 261.366 242.621, 269.500 242.567 C 278.351 242.508, 280.161 242.810, 285.250 245.195 C 288.413 246.677, 291 247.664, 291 247.389 C 291 247.114, 288.413 245.701, 285.250 244.248 C 280.790 242.200, 277.592 241.534, 271 241.281 C 264.546 241.034, 261.297 241.404, 257.500 242.819 M 314.500 242.341 C 312.300 243.069, 308.925 244.481, 307 245.480 C 305.075 246.479, 302.119 248.346, 300.431 249.629 C 297.961 251.506, 297.091 251.721, 295.979 250.731 C 294.807 249.687, 294.801 249.770, 295.942 251.276 C 297.165 252.889, 297.482 252.912, 299.394 251.524 C 300.552 250.683, 303.750 248.655, 306.500 247.018 C 309.250 245.380, 313.975 243.526, 317 242.897 C 320.025 242.268, 325.556 242.009, 329.290 242.322 C 333.344 242.661, 338.281 243.898, 341.540 245.390 C 344.543 246.765, 347 247.664, 347 247.389 C 347 247.114, 344.413 245.701, 341.250 244.248 C 336.756 242.184, 333.643 241.543, 327 241.313 C 321.841 241.135, 316.928 241.539, 314.500 242.341 M 292.500 249 C 292.840 249.550, 293.343 250, 293.618 250 C 293.893 250, 293.840 249.550, 293.500 249 C 293.160 248.450, 292.657 248, 292.382 248 C 292.107 248, 292.160 248.450, 292.500 249 M 242 253.500 C 242 253.775, 242.225 254, 242.500 254 C 242.775 254, 243 253.775, 243 253.500 C 243 253.225, 242.775 253, 242.500 253 C 242.225 253, 242 253.225, 242 253.500 M 354 253.500 C 354 253.775, 354.225 254, 354.500 254 C 354.775 254, 355 253.775, 355 253.500 C 355 253.225, 354.775 253, 354.500 253 C 354.225 253, 354 253.225, 354 253.500 M 356.129 256.500 C 357.026 257.600, 358.529 260.020, 359.471 261.878 C 360.413 263.736, 361.780 267.336, 362.509 269.878 C 363.238 272.420, 364.144 277.340, 364.522 280.811 C 364.901 284.283, 365.436 286.897, 365.711 286.622 C 365.987 286.346, 365.718 282.444, 365.113 277.950 C 364.508 273.456, 362.834 267.153, 361.394 263.943 C 359.953 260.732, 357.813 257.294, 356.637 256.303 C 354.539 254.533, 354.530 254.536, 356.129 256.500 M 234.452 262.093 C 233.572 263.794, 233.030 265.363, 233.247 265.580 C 233.464 265.797, 234.390 264.406, 235.305 262.487 C 236.219 260.569, 236.761 259, 236.510 259 C 236.258 259, 235.332 260.392, 234.452 262.093 M 264.721 263.484 C 262.093 264.156, 258.853 265.729, 257.522 266.980 C 256.190 268.230, 254.156 271.265, 253 273.722 C 251.420 277.085, 250.949 279.862, 251.097 284.940 C 251.219 289.105, 252.344 294.911, 254.036 300.101 C 255.544 304.728, 258.369 311.210, 260.313 314.507 C 262.258 317.803, 266.169 323.087, 269.004 326.250 C 271.840 329.413, 274.636 332, 275.217 332 C 275.798 332, 274.281 329.863, 271.845 327.250 C 269.410 324.637, 266.050 320.475, 264.379 318 C 262.708 315.525, 261.012 312.938, 260.611 312.250 C 260.210 311.563, 260.074 311, 260.308 311 C 260.542 311, 261.996 312.913, 263.537 315.250 C 265.079 317.587, 267.951 321.442, 269.920 323.816 C 271.889 326.190, 277.663 331.521, 282.750 335.663 C 287.837 339.805, 292 343.413, 292 343.681 C 292 343.949, 290.087 342.689, 287.750 340.882 C 285.413 339.074, 281.990 336.308, 280.145 334.736 C 278.300 333.163, 276.540 332.127, 276.235 332.432 C 275.929 332.737, 276.614 333.778, 277.755 334.744 C 278.897 335.710, 280.657 337.175, 281.666 338 C 282.675 338.826, 286.357 341.638, 289.849 344.250 C 293.341 346.863, 296.790 349, 297.512 349 C 298.235 349, 302.353 346.378, 306.663 343.174 C 310.974 339.969, 317.146 334.920, 320.381 331.953 C 323.616 328.987, 328.048 324.142, 330.231 321.187 C 332.414 318.232, 335.697 312.785, 337.527 309.082 C 339.357 305.379, 341.562 299.618, 342.427 296.280 C 343.292 292.942, 344 287.449, 344 284.074 C 344 280.698, 343.301 276.263, 342.447 274.218 C 341.593 272.173, 339.719 269.273, 338.282 267.773 C 336.845 266.273, 334.057 264.498, 332.085 263.828 C 330.113 263.158, 327.028 262.662, 325.230 262.726 C 323.431 262.789, 319.929 263.824, 317.448 265.025 C 314.968 266.226, 311.489 269.030, 309.719 271.255 C 307.949 273.481, 305.297 276.584, 303.827 278.151 C 301.834 280.275, 300.225 281, 297.500 281 C 294.793 281, 293.154 280.271, 291.173 278.184 C 289.703 276.635, 287.240 273.705, 285.699 271.674 C 284.159 269.642, 281.818 267.272, 280.498 266.406 C 279.177 265.541, 276.162 264.255, 273.798 263.548 C 270.366 262.522, 268.537 262.509, 264.721 263.484 M 264.403 264.686 C 263.250 264.913, 260.775 266.459, 258.903 268.122 L 255.500 271.144 259.313 268.405 C 262.403 266.186, 264.204 265.668, 268.813 265.672 C 272.120 265.675, 275.820 266.362, 277.654 267.315 C 279.389 268.215, 281.864 270.337, 283.154 272.029 C 284.444 273.721, 286.971 276.833, 288.769 278.945 C 290.947 281.503, 293.201 283.003, 295.521 283.438 C 297.901 283.884, 300.162 283.542, 302.656 282.359 C 304.664 281.406, 307.026 279.304, 307.904 277.687 C 308.782 276.071, 310.566 273.439, 311.869 271.838 C 313.172 270.238, 315.647 268.198, 317.369 267.305 C 319.098 266.409, 323.048 265.646, 326.191 265.602 C 330.494 265.541, 332.567 266.032, 334.691 267.615 C 336.236 268.767, 338.265 271.015, 339.200 272.611 C 340.135 274.208, 341.355 278.435, 341.910 282.007 L 342.921 288.500 342.473 282.225 C 342.227 278.774, 341.361 274.665, 340.549 273.094 C 339.736 271.523, 337.721 269.102, 336.071 267.713 C 334.420 266.324, 331.304 264.889, 329.147 264.525 C 326.990 264.160, 323.270 264.389, 320.880 265.032 C 317.939 265.824, 315.236 267.598, 312.517 270.520 C 310.308 272.895, 307.375 276.233, 306 277.939 C 304.625 279.644, 302.150 281.407, 300.500 281.855 C 298.850 282.304, 296.043 282.284, 294.263 281.811 C 292.046 281.221, 289.803 279.303, 287.146 275.725 C 285.013 272.851, 282.337 269.670, 281.200 268.655 C 280.063 267.640, 277.415 266.197, 275.316 265.449 C 273.217 264.700, 270.375 264.129, 269 264.180 C 267.625 264.231, 265.556 264.458, 264.403 264.686 M 72.500 268 C 72.840 268.550, 73.343 269, 73.618 269 C 73.893 269, 73.840 268.550, 73.500 268 C 73.160 267.450, 72.657 267, 72.382 267 C 72.107 267, 72.160 267.450, 72.500 268 M 231.083 272.049 C 230.487 274.826, 230.073 281.014, 230.162 285.799 L 230.325 294.500 231.009 283.500 C 231.386 277.450, 232.036 271.262, 232.455 269.750 C 232.874 268.238, 232.980 267, 232.691 267 C 232.402 267, 231.678 269.272, 231.083 272.049 M 76.550 273.500 C 77.519 275.150, 80.550 279.104, 83.286 282.286 C 86.022 285.469, 88.497 287.836, 88.786 287.547 C 89.075 287.259, 87.093 284.655, 84.383 281.761 C 81.672 278.867, 78.405 275.150, 77.122 273.500 L 74.789 270.500 76.550 273.500 M 183.250 271.689 C 184.213 271.941, 185.787 271.941, 186.750 271.689 C 187.713 271.438, 186.925 271.232, 185 271.232 C 183.075 271.232, 182.287 271.438, 183.250 271.689 M 180 272.500 C 180 272.775, 180.225 273, 180.500 273 C 180.775 273, 181 272.775, 181 272.500 C 181 272.225, 180.775 272, 180.500 272 C 180.225 272, 180 272.225, 180 272.500 M 192.234 274.914 L 195.500 277.829 196 291.084 C 196.363 300.704, 196.850 304.409, 197.775 304.595 C 198.476 304.735, 198.589 304.621, 198.025 304.342 C 197.410 304.037, 197 299.037, 197 291.851 C 197 284.996, 196.522 278.934, 195.883 277.684 C 195.269 276.483, 193.806 274.723, 192.633 273.772 C 191.460 272.822, 190.155 272.034, 189.734 272.022 C 189.313 272.010, 190.438 273.311, 192.234 274.914 M 253.855 274.750 C 253.252 276.262, 252.710 280.200, 252.650 283.500 C 252.590 286.800, 253.133 292.123, 253.858 295.329 C 254.582 298.535, 255.341 300.993, 255.543 300.790 C 255.746 300.588, 255.267 296.731, 254.480 292.221 C 253.435 286.235, 253.309 282.645, 254.013 278.932 C 254.543 276.135, 255.234 273.430, 255.548 272.923 C 255.861 272.415, 255.855 272, 255.534 272 C 255.213 272, 254.457 273.238, 253.855 274.750 M 175.924 275.579 C 173.672 277.974, 173.465 279.105, 173 291.532 C 172.725 298.889, 172.803 304.591, 173.174 304.204 C 173.544 303.817, 173.994 298.023, 174.174 291.330 C 174.464 280.520, 174.755 278.815, 176.780 276.080 C 178.034 274.386, 178.900 273, 178.704 273 C 178.509 273, 177.258 274.160, 175.924 275.579 M 364.168 291.090 C 364.076 293.065, 363.124 298.104, 362.054 302.289 C 360.984 306.473, 358.538 313.295, 356.619 317.448 C 354.700 321.602, 353.355 325, 353.630 325 C 353.905 325, 355.659 321.690, 357.528 317.645 C 359.397 313.600, 361.870 306.850, 363.024 302.646 C 364.177 298.442, 364.944 293.314, 364.729 291.251 L 364.336 287.500 364.168 291.090 M 128 289.550 C 128 289.782, 130.810 291.390, 134.246 293.124 C 137.681 294.858, 142.929 297.116, 145.910 298.141 C 148.890 299.166, 151.509 299.824, 151.731 299.602 C 151.953 299.381, 150.416 298.640, 148.317 297.957 C 146.218 297.274, 140.787 295.008, 136.250 292.922 C 131.713 290.836, 128 289.319, 128 289.550 M 341.195 291.500 C 341.215 293.150, 341.439 293.704, 341.693 292.731 C 341.947 291.758, 341.930 290.408, 341.656 289.731 C 341.382 289.054, 341.175 289.850, 341.195 291.500 M 92 290.318 C 92 290.643, 93.071 291.981, 94.381 293.290 C 95.690 294.600, 98.728 297.235, 101.131 299.146 C 103.534 301.058, 106.737 303.392, 108.250 304.334 C 109.763 305.276, 111 305.832, 111 305.571 C 111 305.310, 108.862 303.631, 106.250 301.840 C 103.638 300.048, 99.362 296.590, 96.750 294.155 C 94.138 291.719, 92 289.992, 92 290.318 M 231.070 297.583 C 231.109 299.188, 231.539 301.400, 232.026 302.500 C 232.617 303.835, 232.714 303.005, 232.317 300 C 231.989 297.525, 231.559 295.313, 231.361 295.083 C 231.162 294.854, 231.032 295.979, 231.070 297.583 M 339.068 299.169 C 338.378 301.469, 336.518 306.028, 334.933 309.300 C 333.348 312.572, 330.270 317.556, 328.093 320.375 C 325.916 323.194, 321.100 328.200, 317.391 331.500 C 313.683 334.800, 308.140 339.401, 305.074 341.723 C 302.008 344.046, 298.577 345.959, 297.450 345.973 C 296.322 345.988, 294.794 345.438, 294.053 344.750 C 292.988 343.762, 292.854 343.761, 293.409 344.745 C 293.795 345.429, 294.951 346.439, 295.978 346.988 C 297.502 347.804, 299.371 346.859, 306.172 341.832 C 310.752 338.446, 317.700 332.486, 321.611 328.588 C 325.523 324.690, 330.557 318.661, 332.800 315.190 C 335.042 311.720, 337.851 305.954, 339.041 302.377 C 340.232 298.799, 341.006 295.673, 340.763 295.430 C 340.520 295.186, 339.757 296.869, 339.068 299.169 M 153.333 300.667 C 153.700 301.033, 154.300 301.033, 154.667 300.667 C 155.033 300.300, 154.733 300, 154 300 C 153.267 300, 152.967 300.300, 153.333 300.667 M 158 302 C 159.375 302.440, 161.400 302.801, 162.500 302.801 C 164.084 302.801, 163.980 302.634, 162 302 C 160.625 301.560, 158.600 301.199, 157.500 301.199 C 155.916 301.199, 156.020 301.366, 158 302 M 256 302.500 C 256 302.775, 256.225 303, 256.500 303 C 256.775 303, 257 302.775, 257 302.500 C 257 302.225, 256.775 302, 256.500 302 C 256.225 302, 256 302.225, 256 302.500 M 166.813 303.683 C 167.534 303.972, 168.397 303.936, 168.729 303.604 C 169.061 303.272, 168.471 303.036, 167.417 303.079 C 166.252 303.127, 166.015 303.364, 166.813 303.683 M 201.813 303.683 C 202.534 303.972, 203.397 303.936, 203.729 303.604 C 204.061 303.272, 203.471 303.036, 202.417 303.079 C 201.252 303.127, 201.015 303.364, 201.813 303.683 M 210.333 303.667 C 210.700 304.033, 211.300 304.033, 211.667 303.667 C 212.033 303.300, 211.733 303, 211 303 C 210.267 303, 209.967 303.300, 210.333 303.667 M 214.948 306.444 C 216.268 307.850, 217.511 309, 217.709 309 C 217.908 309, 217.617 308.153, 217.063 307.118 C 216.509 306.082, 215.266 304.932, 214.301 304.562 C 212.994 304.060, 213.159 304.540, 214.948 306.444 M 257 304.500 C 257 304.775, 257.225 305, 257.500 305 C 257.775 305, 258 304.775, 258 304.500 C 258 304.225, 257.775 304, 257.500 304 C 257.225 304, 257 304.225, 257 304.500 M 233 306 C 233 306.733, 233.300 307.033, 233.667 306.667 C 234.033 306.300, 234.033 305.700, 233.667 305.333 C 233.300 304.967, 233 305.267, 233 306 M 112 306.371 C 112 306.637, 114.588 308.419, 117.750 310.331 C 120.912 312.243, 127.775 315.608, 133 317.808 C 138.225 320.008, 144.075 322.076, 146 322.402 C 147.925 322.729, 145.900 321.708, 141.500 320.134 C 137.100 318.560, 130.575 315.893, 127 314.207 C 123.425 312.521, 118.588 309.960, 116.250 308.514 C 113.912 307.069, 112 306.105, 112 306.371 M 258.564 308.293 C 258.940 309.279, 259.499 309.834, 259.807 309.526 C 260.115 309.219, 259.808 308.412, 259.124 307.733 C 258.136 306.753, 258.022 306.868, 258.564 308.293 M 234 309 C 234 309.733, 234.300 310.033, 234.667 309.667 C 235.033 309.300, 235.033 308.700, 234.667 308.333 C 234.300 307.967, 234 308.267, 234 309 M 218.079 311.583 C 218.127 312.748, 218.364 312.985, 218.683 312.188 C 218.972 311.466, 218.936 310.603, 218.604 310.271 C 218.272 309.939, 218.036 310.529, 218.079 311.583 M 235.031 311.500 C 235.031 312.050, 235.467 313.175, 236 314 C 236.533 314.825, 236.969 315.050, 236.969 314.500 C 236.969 313.950, 236.533 312.825, 236 312 C 235.467 311.175, 235.031 310.950, 235.031 311.500 M 218.079 317.583 C 218.127 318.748, 218.364 318.985, 218.683 318.188 C 218.972 317.466, 218.936 316.603, 218.604 316.271 C 218.272 315.939, 218.036 316.529, 218.079 317.583 M 237 316.500 C 237 316.775, 237.225 317, 237.500 317 C 237.775 317, 238 316.775, 238 316.500 C 238 316.225, 237.775 316, 237.500 316 C 237.225 316, 237 316.225, 237 316.500 M 238 318.500 C 238 318.775, 238.225 319, 238.500 319 C 238.775 319, 239 318.775, 239 318.500 C 239 318.225, 238.775 318, 238.500 318 C 238.225 318, 238 318.225, 238 318.500 M 215.873 321.653 C 215.118 322.563, 213.151 323.895, 211.500 324.614 C 209.691 325.403, 209.188 325.937, 210.234 325.961 C 211.188 325.982, 213.438 324.663, 215.234 323.029 C 217.030 321.395, 218.218 320.045, 217.872 320.029 C 217.527 320.013, 216.627 320.744, 215.873 321.653 M 239 320.500 C 239 320.775, 239.225 321, 239.500 321 C 239.775 321, 240 320.775, 240 320.500 C 240 320.225, 239.775 320, 239.500 320 C 239.225 320, 239 320.225, 239 320.500 M 240 322.500 C 240 322.775, 240.225 323, 240.500 323 C 240.775 323, 241 322.775, 241 322.500 C 241 322.225, 240.775 322, 240.500 322 C 240.225 322, 240 322.225, 240 322.500 M 150.333 323.667 C 150.700 324.033, 151.300 324.033, 151.667 323.667 C 152.033 323.300, 151.733 323, 151 323 C 150.267 323, 149.967 323.300, 150.333 323.667 M 155.333 324.667 C 155.700 325.033, 156.300 325.033, 156.667 324.667 C 157.033 324.300, 156.733 324, 156 324 C 155.267 324, 154.967 324.300, 155.333 324.667 M 243.186 328.250 C 244.459 330.587, 250.450 337.487, 256.500 343.581 C 262.550 349.676, 269.075 355.684, 271 356.932 C 273.174 358.342, 272.417 357.395, 269 354.431 C 265.975 351.808, 260.232 346.347, 256.238 342.296 C 252.243 338.246, 247.342 332.472, 245.346 329.466 C 243.350 326.460, 241.527 324, 241.294 324 C 241.062 324, 241.913 325.913, 243.186 328.250 M 158.750 325.662 C 159.438 325.940, 160.563 325.940, 161.250 325.662 C 161.938 325.385, 161.375 325.158, 160 325.158 C 158.625 325.158, 158.063 325.385, 158.750 325.662 M 166.813 326.683 C 167.534 326.972, 168.397 326.936, 168.729 326.604 C 169.061 326.272, 168.471 326.036, 167.417 326.079 C 166.252 326.127, 166.015 326.364, 166.813 326.683 M 202.813 326.683 C 203.534 326.972, 204.397 326.936, 204.729 326.604 C 205.061 326.272, 204.471 326.036, 203.417 326.079 C 202.252 326.127, 202.015 326.364, 202.813 326.683 M 351.405 327.155 C 350.962 327.870, 351.130 328.038, 351.845 327.595 C 352.480 327.203, 353 326.684, 353 326.441 C 353 326.198, 352.802 326, 352.559 326 C 352.316 326, 351.797 326.520, 351.405 327.155 M 173.269 327.693 C 174.242 327.947, 175.592 327.930, 176.269 327.656 C 176.946 327.382, 176.150 327.175, 174.500 327.195 C 172.850 327.215, 172.296 327.439, 173.269 327.693 M 194.269 327.693 C 195.242 327.947, 196.592 327.930, 197.269 327.656 C 197.946 327.382, 197.150 327.175, 195.500 327.195 C 193.850 327.215, 193.296 327.439, 194.269 327.693 M 349.405 330.155 C 348.962 330.870, 349.130 331.038, 349.845 330.595 C 350.480 330.203, 351 329.684, 351 329.441 C 351 329.198, 350.802 329, 350.559 329 C 350.316 329, 349.797 329.520, 349.405 330.155 M 338.500 342.403 C 333 348.042, 326.475 354.346, 324 356.412 L 319.500 360.168 324 356.874 C 326.475 355.061, 332.255 349.961, 336.845 345.539 C 341.435 341.118, 346.078 336.262, 347.163 334.750 C 348.248 333.238, 348.993 332.034, 348.818 332.075 C 348.643 332.116, 344 336.764, 338.500 342.403 M 311 365.527 C 306.875 368.503, 302.040 371.227, 300.257 371.580 C 298.473 371.932, 295.910 371.943, 294.562 371.605 C 293.215 371.267, 289.119 368.941, 285.461 366.436 C 281.803 363.932, 279.105 362.361, 279.467 362.946 C 279.828 363.531, 282.864 365.870, 286.213 368.145 C 290.295 370.916, 293.757 372.444, 296.715 372.777 C 300.794 373.237, 301.764 372.841, 309.561 367.545 C 314.200 364.394, 318.248 361.407, 318.557 360.908 C 318.866 360.409, 318.979 360.026, 318.809 360.057 C 318.639 360.088, 315.125 362.550, 311 365.527" stroke="none" fill="#44d49c" fill-rule="evenodd"/></svg>