<svg xmlns="http://www.w3.org/2000/svg" width="38" height="36" fill="none" viewBox="0 0 38 36">
  <path fill="#47D198" stroke="#47D198" stroke-width="2" d="M23.727 6.103c.62-.381.93-.572 1.265-.54.334.033.602.28 1.137.773l5.399 4.976c.621.573.932.86.97 1.237.038.378-.21.72-.705 1.406l-3.251 4.494c-.978 1.351-1.466 2.027-1.804 2.783-.338.756-.514 1.571-.868 3.201l-.382 1.759c-.15.69-.225 1.036-.408 1.235a1 1 0 0 1-.775.323c-.271-.01-.569-.2-1.165-.58l-.415-.266c-2.515-1.604-3.773-2.407-4.95-3.306A34.999 34.999 0 0 1 12.92 19.1c-.987-1.106-1.883-2.298-3.675-4.684-.403-.536-.604-.805-.644-1.046a1 1 0 0 1 .371-.953c.193-.15.523-.21 1.183-.332l2.546-.47c1.463-.27 2.194-.404 2.885-.67.69-.264 1.324-.654 2.591-1.432l5.55-3.41Z"/>
  <path stroke="#47D198" stroke-linecap="round" stroke-width="2" d="m7.818 28.366 7.035-6.484"/>
</svg>
