<svg xmlns="http://www.w3.org/2000/svg" width="466" height="428" viewBox="0 0 466 428" version="1.1"><path d="M 255.519 144.979 C 222.509 177.968, 170.637 229.628, 140.250 259.779 C 106.893 292.877, 85 315.333, 85 316.451 C 85 317.541, 96.106 329.390, 112.019 345.276 C 132.952 366.173, 139.601 372.250, 141.538 372.250 C 143.393 372.250, 146.998 369.286, 155.519 360.758 C 161.833 354.437, 167 348.848, 167 348.336 C 167 347.824, 165.181 345.629, 162.957 343.458 C 160.054 340.623, 158.997 338.826, 159.207 337.082 C 159.666 333.278, 161.317 333.581, 166.750 338.466 C 169.524 340.959, 172.187 343, 172.667 343 C 173.147 343, 177.801 338.721, 183.009 333.491 C 190.257 326.213, 192.246 323.651, 191.489 322.570 C 190.945 321.794, 188.546 318.873, 186.157 316.079 C 183.768 313.286, 182.275 311, 182.839 311 C 183.404 311, 184.167 310.048, 184.537 308.884 C 185.153 306.944, 185.678 307.233, 190.883 312.384 C 194.004 315.473, 196.945 318, 197.419 318 C 198.590 318, 218 298.860, 218 297.705 C 218 297.199, 214.552 293.480, 210.338 289.440 C 203.787 283.159, 202.863 281.870, 203.961 280.547 C 206.213 277.833, 208.284 278.833, 215.730 286.228 L 223.006 293.456 233.003 283.497 C 238.501 278.019, 243 273.055, 243 272.465 C 243 271.875, 241.425 269.866, 239.500 268 C 235.680 264.297, 235.362 263.255, 237.260 260.659 C 238.411 259.085, 238.894 259.285, 242.844 262.968 C 245.222 265.186, 247.701 267, 248.353 267 C 249.004 267, 254.011 262.510, 259.477 257.023 L 269.417 247.045 266.647 244.153 C 264.287 241.690, 264.118 241.169, 265.507 240.636 C 266.668 240.190, 266.941 239.360, 266.454 237.755 C 265.852 235.771, 266.181 235.891, 269.183 238.750 C 271.060 240.537, 273.032 242, 273.566 242 C 274.825 242, 294.540 222.226, 293.949 221.557 C 293.702 221.277, 290.176 217.670, 286.114 213.541 C 279.880 207.203, 278.924 205.796, 279.987 204.516 C 282.212 201.835, 284.306 202.854, 291.730 210.228 L 299.006 217.456 309.003 207.497 C 314.501 202.019, 319 197.090, 319 196.542 C 319 195.995, 315.787 192.313, 311.860 188.359 C 306.921 183.386, 304.910 180.676, 305.337 179.563 C 306.817 175.708, 309.121 176.714, 316.669 184.511 L 324.199 192.289 334.850 181.575 L 345.500 170.861 339.941 165.681 C 336.883 162.831, 331.561 157.437, 328.115 153.694 C 322.994 148.132, 322.067 146.624, 323.047 145.444 C 323.706 144.650, 324.760 144, 325.389 144 C 326.019 144, 331.469 148.950, 337.500 155 C 343.531 161.050, 348.942 166, 349.523 166 C 350.105 166, 355.850 160.832, 362.290 154.516 C 370.350 146.611, 374 142.332, 374 140.787 C 374 137.421, 321.378 85, 317.999 85 C 316.080 85, 302.336 98.193, 255.519 144.979" stroke="none" fill="#45d39c" fill-rule="evenodd"/></svg>