<svg xmlns="http://www.w3.org/2000/svg" width="600" height="502" viewBox="0 0 600 502" version="1.1"><path d="M 135.241 150.995 C 133.448 152.088, 131.088 154.448, 129.995 156.241 C 128.060 159.414, 128.007 161.420, 128.005 232.500 C 128.003 300.028, 128.134 305.757, 129.752 308.929 C 130.713 310.815, 132.769 313.290, 134.321 314.429 C 136.967 316.372, 138.700 316.520, 162.321 316.816 C 178.422 317.018, 188.825 316.741, 191.176 316.048 C 195.090 314.894, 200.002 309.951, 199.996 307.173 C 199.994 306.127, 199.263 306.697, 198.044 308.696 C 193.953 315.406, 193.482 315.500, 164.044 315.500 C 139.072 315.500, 137.339 315.382, 134.783 313.500 C 128.797 309.094, 129 311.921, 129.002 232.849 C 129.003 165.973, 129.135 160.235, 130.752 157 C 134.010 150.478, 136.303 150.003, 164.500 150.008 C 184.972 150.011, 190.031 150.289, 192.430 151.540 C 195.258 153.015, 197.764 155.772, 199.180 158.966 C 199.773 160.306, 199.868 160.296, 199.930 158.885 C 199.968 157.997, 199.060 156.075, 197.912 154.615 C 193.682 149.238, 192.257 149, 164.300 149.004 C 140.320 149.007, 138.270 149.148, 135.241 150.995 M 394.367 150.893 C 390.828 153.079, 387.989 156.695, 388.023 158.973 C 388.036 159.813, 389.017 158.825, 390.203 156.778 C 393.923 150.362, 395.698 150, 423.433 150 C 450.914 150, 453.482 150.474, 456.985 156.190 C 458.982 159.448, 459.010 160.671, 458.757 233.734 L 458.500 307.967 454.734 311.734 L 450.969 315.500 426.678 315.841 C 397.994 316.243, 395.308 315.789, 390.973 309.804 C 387.675 305.251, 386.951 305.768, 389.886 310.580 C 393.505 316.516, 396.052 317, 423.651 316.998 C 451.447 316.997, 453.386 316.604, 457.730 310.102 L 460 306.704 460 233.302 C 460 153.764, 460.242 157.354, 454.516 152 L 451.842 149.500 424.671 149.228 C 399.276 148.974, 397.295 149.083, 394.367 150.893 M 200.474 233 C 200.474 272.875, 200.598 289.188, 200.750 269.250 C 200.901 249.313, 200.901 216.688, 200.750 196.750 C 200.598 176.813, 200.474 193.125, 200.474 233 M 387.474 233 C 387.474 272.875, 387.598 289.188, 387.750 269.250 C 387.901 249.313, 387.901 216.688, 387.750 196.750 C 387.598 176.813, 387.474 193.125, 387.474 233 M 96.994 178.917 C 89.529 181.240, 84.316 185.854, 81.081 193 C 79.155 197.254, 79.043 199.439, 79.032 233 C 79.020 268.224, 79.038 268.539, 81.381 273.571 C 86.057 283.613, 95.428 288.327, 109.656 287.794 L 117.500 287.500 117.500 233 L 117.500 178.500 108.500 178.318 C 103.550 178.218, 98.372 178.488, 96.994 178.917 M 470.502 179.137 C 470.215 179.887, 470.097 204.575, 470.240 234 L 470.500 287.500 477.359 287.798 C 492.056 288.437, 501.154 284.112, 506.250 274.064 L 509 268.641 508.994 233.571 C 508.991 213.501, 508.565 196.975, 507.998 194.935 C 506.687 190.215, 500.791 183.456, 495.643 180.770 C 490.435 178.053, 471.391 176.816, 470.502 179.137 M 97.733 180.158 C 90.952 181.630, 85.075 186.578, 81.886 193.500 C 80.211 197.137, 80.042 200.622, 80.022 231.884 C 80.007 255.406, 80.372 267.508, 81.176 270.193 C 82.803 275.623, 89.135 282.511, 94.268 284.434 C 97.943 285.812, 106.411 286.548, 113.750 286.129 L 116 286 116 232.636 L 116 179.273 108.750 179.306 C 104.763 179.325, 99.805 179.708, 97.733 180.158 M 472 232.559 L 472 286 481.032 286 C 491.305 286, 495.714 284.599, 500.861 279.699 C 507.823 273.072, 508 271.911, 508 232.982 C 508 210.962, 507.611 197.094, 506.944 195.315 C 505.005 190.145, 500.808 185.078, 496.256 182.410 C 492.362 180.128, 490.401 179.723, 481.874 179.443 L 472 179.119 472 232.559 M 211 233 L 211 260 294 260 L 377 260 377 233 L 377 206 294 206 L 211 206 211 233 M 212.233 232.750 L 212.500 258.500 293 258.585 C 337.275 258.631, 374.063 258.471, 374.750 258.228 C 375.706 257.890, 376 251.805, 376 232.393 L 376 207 293.983 207 L 211.966 207 212.233 232.750" stroke="none" fill="#55d49d" fill-rule="evenodd"/><path d="M 152.807 148.747 C 159.576 148.921, 170.376 148.920, 176.807 148.746 C 183.238 148.572, 177.700 148.431, 164.500 148.431 C 151.300 148.432, 146.038 148.574, 152.807 148.747 M 411.308 148.748 C 418.353 148.920, 429.603 148.919, 436.308 148.747 C 443.014 148.574, 437.250 148.433, 423.500 148.434 C 409.750 148.434, 404.264 148.576, 411.308 148.748 M 135.619 151.192 C 136.004 151.815, 135.699 152.051, 134.889 151.760 C 132.933 151.057, 130.012 153.869, 130.737 155.758 C 131.123 156.763, 130.937 157.079, 130.219 156.635 C 129.395 156.126, 129.079 175.692, 129.025 230.451 C 128.985 271.431, 128.696 305.756, 128.382 306.730 C 127.892 308.248, 127.979 308.287, 128.992 307 C 129.979 305.747, 130.094 305.865, 129.689 307.716 C 129.396 309.057, 129.658 309.846, 130.353 309.716 C 130.984 309.597, 131.438 310.283, 131.363 311.239 C 131.288 312.196, 131.645 312.720, 132.157 312.403 C 133.296 311.699, 136.165 313.924, 135.502 314.997 C 135.240 315.421, 147.527 315.707, 162.806 315.634 C 193.426 315.486, 193.973 315.382, 197.885 308.949 C 198.869 307.331, 199.860 306.193, 200.087 306.420 C 200.314 306.647, 200.500 273.614, 200.500 233.012 C 200.500 189.068, 200.133 159.418, 199.592 159.752 C 199.092 160.061, 198.949 159.301, 199.275 158.057 C 199.599 156.817, 199.599 156.068, 199.274 156.392 C 198.550 157.116, 196 155.112, 196 153.819 C 196 153.303, 196.563 153.220, 197.250 153.633 C 198.099 154.143, 198.060 153.842, 197.128 152.692 C 195.583 150.788, 194.510 150.398, 195.580 152.130 C 196.008 152.822, 195.740 153.064, 194.889 152.755 C 194.125 152.477, 193.603 151.772, 193.729 151.187 C 193.887 150.456, 184.759 150.125, 164.459 150.125 C 143.808 150.125, 135.157 150.445, 135.619 151.192 M 394.549 151.079 C 394.867 151.593, 394.480 152.262, 393.689 152.566 C 392.899 152.869, 391.433 154.638, 390.431 156.498 C 389.430 158.357, 388.361 159.723, 388.056 159.534 C 387.750 159.345, 387.500 192.223, 387.500 232.595 C 387.500 272.968, 387.886 306, 388.357 306 C 388.828 306, 388.946 306.698, 388.618 307.552 C 388.291 308.406, 388.419 308.859, 388.902 308.561 C 389.706 308.064, 393.413 312.609, 393.474 314.167 C 393.488 314.533, 393.910 315.208, 394.410 315.667 C 394.950 316.161, 394.985 315.922, 394.496 315.080 C 393.843 313.955, 394.069 313.851, 395.586 314.580 C 397.569 315.533, 453.446 316.113, 452.504 315.171 C 451.734 314.401, 457.153 308.977, 458.104 309.564 C 458.543 309.836, 458.935 276.235, 458.975 234.895 C 459.015 193.556, 459.331 159.273, 459.678 158.712 C 460.068 158.080, 459.804 158.003, 458.985 158.510 C 458.015 159.109, 457.836 158.868, 458.319 157.612 C 458.762 156.456, 458.599 156.130, 457.819 156.612 C 457.056 157.084, 456.869 156.785, 457.271 155.737 C 457.965 153.928, 455.866 151.837, 452.667 151.153 C 448.273 150.214, 393.971 150.144, 394.549 151.079 M 460.474 233 C 460.474 272.325, 460.598 288.413, 460.750 268.750 C 460.901 249.088, 460.901 216.912, 460.750 197.250 C 460.598 177.588, 460.474 193.675, 460.474 233 M 127.474 233 C 127.474 271.775, 127.598 287.637, 127.750 268.250 C 127.901 248.863, 127.901 217.138, 127.750 197.750 C 127.598 178.363, 127.474 194.225, 127.474 233 M 98 180.138 C 96.075 180.574, 93.914 180.727, 93.198 180.477 C 92.482 180.227, 92.157 180.445, 92.476 180.961 C 92.795 181.477, 92.072 182.426, 90.869 183.070 C 89.665 183.714, 87.574 185.424, 86.220 186.871 C 84.867 188.317, 83.380 189.393, 82.916 189.262 C 82.452 189.131, 82.357 189.767, 82.706 190.676 C 83.128 191.777, 82.953 192.089, 82.181 191.612 C 81.401 191.130, 81.238 191.456, 81.681 192.612 C 82.102 193.708, 81.951 194.088, 81.263 193.663 C 80.566 193.232, 80.386 193.759, 80.751 195.155 C 81.061 196.342, 80.907 197.060, 80.408 196.751 C 79.866 196.415, 79.771 211.164, 80.173 233.344 C 80.847 270.530, 81.046 274.978, 82.023 274.667 C 83.087 274.327, 89.937 282.732, 89.232 283.512 C 88.829 283.957, 89.015 284.026, 89.644 283.667 C 90.273 283.307, 92.369 283.674, 94.303 284.482 C 97.351 285.756, 106.562 286.535, 113.750 286.128 L 116 286 116 232.636 L 116 179.273 108.750 179.308 C 104.763 179.328, 99.925 179.701, 98 180.138 M 472 232.600 L 472 286 481.032 286 C 486.781 286, 491.364 285.457, 493.638 284.507 C 495.604 283.685, 497.684 283.305, 498.261 283.661 C 498.837 284.017, 499.032 283.861, 498.693 283.313 C 497.924 282.068, 504.360 275.693, 505.369 276.702 C 505.774 277.107, 505.780 276.591, 505.383 275.555 C 504.841 274.144, 504.992 273.877, 505.985 274.490 C 506.869 275.037, 507.070 274.923, 506.590 274.146 C 506.194 273.506, 506.174 272.027, 506.545 270.859 C 506.919 269.679, 507.503 269.196, 507.859 269.772 C 508.212 270.343, 508.500 253.752, 508.500 232.905 C 508.500 212.057, 508.329 195.514, 508.119 196.142 C 507.910 196.770, 507.125 195.824, 506.374 194.039 C 505.624 192.254, 505.305 190.277, 505.665 189.647 C 506.026 189.016, 505.952 188.834, 505.502 189.241 C 504.569 190.087, 502 188.263, 502 186.755 C 502 186.205, 502.788 186.359, 503.750 187.097 C 504.712 187.835, 504.422 187.229, 503.105 185.751 C 501.787 184.272, 500.334 183.294, 499.875 183.577 C 498.644 184.338, 494.847 182.056, 495.524 180.961 C 495.852 180.431, 495.357 180.309, 494.388 180.681 C 493.439 181.046, 492.925 180.929, 493.238 180.420 C 493.568 179.885, 489.242 179.437, 482.902 179.350 L 472 179.200 472 232.600 M 509.448 232.500 C 509.447 250.650, 509.582 258.216, 509.748 249.314 C 509.913 240.411, 509.914 225.561, 509.749 216.314 C 509.583 207.066, 509.448 214.350, 509.448 232.500 M 78.445 232.500 C 78.444 249.550, 78.581 256.666, 78.748 248.312 C 78.915 239.959, 78.915 226.009, 78.748 217.312 C 78.582 208.616, 78.445 215.450, 78.445 232.500 M 252.750 205.750 C 275.438 205.900, 312.563 205.900, 335.250 205.750 C 357.938 205.600, 339.375 205.477, 294 205.477 C 248.625 205.477, 230.063 205.600, 252.750 205.750 M 212.233 232.750 L 212.500 258.500 293 258.585 C 337.275 258.631, 374.063 258.471, 374.750 258.228 C 375.706 257.890, 376 251.805, 376 232.393 L 376 207 293.983 207 L 211.966 207 212.233 232.750 M 377.437 233 C 377.437 247.575, 377.577 253.537, 377.747 246.250 C 377.918 238.963, 377.918 227.037, 377.747 219.750 C 377.577 212.463, 377.437 218.425, 377.437 233" stroke="none" fill="#44d49c" fill-rule="evenodd"/></svg>